**ABCDEFGHIJKLMNOPQRSTUVWXYZabcdefghijklmnopqrstuvwxyz**************************
**PARASOLID !"#$%&'()*+,-./:;<=>?@[\]^_`{|}~0123456789**************************
**PART1;
MC=AMD64;
MC_MODEL=Intel64 Family 6 Model 140 Stepping 1, GenuineIntel;
MC_ID=unknown;
OS=Windows_NT;
OS_RELEASE=unknown;
FRU=Parasolid Version 34.1, build 225,  5-24-2022;
APPL=SOLIDWORKS 2023-2022300;
SITE=;
USER=unknown;
FORMAT=text;
GUISE=transmit;
KEY=leg_oldtwsbr;
FILE=leg_oldtwsbr.x_t;
DATE=Fri Sep 27 11:14:44 2024;
**PART2;
SCH=SCH_3401225_34101;
USFLD_SIZE=0;
**PART3;
**END_OF_HEADER*****************************************************************
T51 : TRANSMIT FILE created by modeller version 340122523 SCH_3401225_34101_1300
6231 0 12 36 CCCI7 lattice222 0 CCCI4 mesh1006 0 I8 polyline1008 0 CCCCCCCDI5 ow
ner1040 0 CCCI16 boundary_lattice222 0 CCCI13 boundary_mesh1006 0 I17 boundary_p
olyline1008 0 CCCA16 index_map_offset0 0 1 dA9 index_map82 0 A17 node_id_index_m
ap82 0 A20 schema_embedding_map82 0 A5 child12 0 A14 lowest_node_id0 0 1 dA16 me
sh_offset_data206 0 Z1 1370 2 3 0 0 0 0 0 0 0 1e3 1e-8 0 4 0 1 0 1 1 5 0 6 7 8 0
 0 9 10 11 0 0 0 0 0 0 0 81 255 2 2 1320 12 1 13 0 0 0 0 14 70 11 CI9 list_type0
 0 1 uI10 notransmit0 0 1 lCCCDCCDI12 finger_index0 0 1 dI12 finger_block1012 0
 CZ3 0 4 T1 0 0 12 20 1 15 15 13 255 5 370 0 1 0 16 0 0 17 0 51 255 6 1042 0 18
 19 0 0 +.0245 .003 -.0696136241701869 0 1 0 .002 0 0 1 31 255 7 1023 0 10 20 0
 0 -.0245 .003 -.0696136241701869 0 1 0 0 0 1 .002 29 255 8 1005 0 11 21 0 .0225
 0 -.0696136241701869 19 9 CCCCCCI5 frame230 0 CA5 owner12 0 Z9 117 0 1 17 0 22
 0 V0 16 255 10 1017 0 ?23 0 24 7 0 0 1 18 255 11 1003 0 25 0 26 8 ?1 17 255 25
 0 27 28 29 11 30 24 0 31 +18 26 1000 0 32 11 33 21 ?1 17 32 0 34 35 31 26 36 37
 0 38 +18 33 991 0 23 26 39 40 ?1 29 21 1002 0 26 40 8 .0225 .003 -.069613624170
1869 29 40 993 0 33 41 21 .0245 .003 -.0716136241701869 29 41 990 0 39 42 40 .02
45 0 -.0716136241701869 18 39 988 0 30 33 43 41 ?1 29 42 935 0 43 44 41 -.0245 0
 -.0716136241701869 18 43 933 0 45 39 46 42 ?1 29 44 932 0 46 47 42 -.0245 .003
 -.0716136241701869 18 46 930 0 48 43 49 44 ?1 29 47 923 0 49 50 44 -.0225 .003
 -.0696136241701869 18 49 921 0 51 46 52 47 ?1 29 50 920 0 52 53 47 -.0225 0 -.0
696136241701869 18 52 918 0 54 49 55 50 ?1 29 53 871 0 55 56 50 -.0225 .003 .055
3863758298131 18 55 869 0 57 52 58 53 ?1 29 56 862 0 58 59 53 -.0225 0 .05538637
58298131 18 58 860 0 60 55 61 56 ?1 29 59 851 0 61 62 56 -.0195 .003 .0583863758
298131 18 61 849 0 63 58 64 59 ?1 29 62 848 0 64 65 59 -.0195 0 .058386375829813
1 18 64 846 0 66 61 67 62 ?1 29 65 795 0 67 68 62 .0195 .003 .0583863758298131 1
8 67 793 0 69 64 70 65 ?1 29 68 786 0 70 71 65 .0195 0 .0583863758298131 18 70 7
84 0 72 67 73 68 ?1 29 71 777 0 73 74 68 .0225 .003 .0553863758298131 18 73 775
 0 75 70 76 71 ?1 29 74 774 0 76 77 71 .0225 0 .0553863758298131 18 76 772 0 78
 73 79 74 ?1 29 77 725 0 79 80 74 .0295 .003 -.0716136241701869 18 79 723 0 81 7
6 82 77 ?1 29 80 716 0 82 83 77 .0295 0 -.0716136241701869 18 82 714 0 84 79 85
 80 ?1 29 83 707 0 85 86 80 .0325 .003 -.0746136241701869 18 85 705 0 87 82 88 8
3 ?1 29 86 704 0 88 89 83 .0325 0 -.0746136241701869 18 88 702 0 90 85 91 86 ?1
 29 89 655 0 91 92 86 -.0325 .003 -.0746136241701869 18 91 653 0 93 88 94 89 ?1
 29 92 646 0 94 95 89 -.0325 0 -.0746136241701869 18 94 644 0 96 91 97 92 ?1 29
 95 637 0 97 98 92 -.0295 .003 -.0716136241701869 18 97 635 0 99 94 100 95 ?1 29
 98 634 0 100 101 95 -.0295 0 -.0716136241701869 18 100 632 0 102 97 103 98 ?1 2
9 101 583 0 103 104 98 -.0295 .003 -.141613624170187 18 103 581 0 105 100 106 10
1 ?1 29 104 574 0 106 107 101 -.0295 0 -.141613624170187 18 106 572 0 108 103 10
9 104 ?1 29 107 565 0 109 110 104 -.0325 .003 -.138613624170187 18 109 563 0 111
 106 112 107 ?1 29 110 562 0 112 113 107 -.0325 0 -.138613624170187 18 112 560 0
 114 109 115 110 ?1 29 113 513 0 115 116 110 .0325 .003 -.138613624170187 18 115
 511 0 117 112 118 113 ?1 29 116 504 0 118 119 113 .0325 0 -.138613624170187 18
 118 502 0 120 115 121 116 ?1 29 119 494 0 121 122 116 .0295 .003 -.141613624170
187 18 121 492 0 123 118 124 119 ?1 29 122 491 0 124 0 119 .0295 0 -.14161362417
0187 18 124 489 0 125 121 0 122 ?1 17 125 0 27 120 108 124 126 127 0 128 +15 255
 27 183 0 129 130 131 17 120 0 27 132 125 118 128 133 0 134 +17 108 0 27 125 135
 106 114 136 0 126 +17 126 0 137 105 138 106 125 127 0 139 -16 127 573 0 ?125 14
0 141 142 0 0 1 17 128 0 143 144 145 124 120 133 0 138 -15 143 533 0 146 147 0 1
7 144 0 143 146 128 121 138 148 0 0 -17 145 0 143 128 146 118 117 149 0 0 -16 13
3 505 0 ?120 149 148 150 0 0 1 17 138 0 137 126 123 124 144 148 0 0 +15 137 307
 0 126 151 0 17 123 0 137 138 105 121 152 153 0 154 +16 148 495 0 ?138 133 155 1
56 0 0 1 16 155 86 0 ?157 148 153 158 0 0 1 30 255 156 497 0 148 159 150 0 +.029
5 .003 -.141613624170187 0 -1 0 31 159 272 0 140 142 156 0 -.0155 0 .02045403967
549635 0 1 0 0 0 1 .00125 31 150 507 0 133 156 160 0 -.0295 0 -.138613624170187
 0 1 0 0 0 1 .003 30 160 516 0 149 150 161 0 -.0325 .003 -.138613624170187 0 -1
 0 16 149 514 0 ?117 162 133 160 0 0 1 31 161 522 0 162 160 163 0 +.0295 .003 -.
138613624170187 0 1 0 0 0 1 .003 16 162 520 0 ?154 164 149 161 0 0 1 30 163 568
 0 164 161 165 0 +-.0325 0 -.138613624170187 0 -1 0 16 164 566 0 ?166 136 162 16
3 0 0 1 31 165 577 0 136 163 167 0 --.0295 0 -.138613624170187 0 1 0 0 0 1 .003
 16 136 575 0 ?108 168 164 165 0 0 1 30 167 586 0 168 165 169 0 --.0295 .003 -.1
41613624170187 0 -1 0 16 168 584 0 ?105 170 136 167 0 0 1 31 169 593 0 170 167 1
71 0 +-.0295 .003 -.138613624170187 0 1 0 0 0 1 .003 16 170 591 0 ?111 172 168 1
69 0 0 1 30 171 640 0 172 169 173 0 +-.0295 .003 -.0716136241701869 0 -1 0 16 17
2 638 0 ?174 175 170 171 0 0 1 31 173 649 0 175 171 176 0 --.0295 0 -.0746136241
701869 0 1 0 0 0 1 .003 16 175 647 0 ?96 177 172 173 0 0 1 30 176 658 0 177 173
 178 0 --.0325 .003 -.0746136241701869 0 -1 0 16 177 656 0 ?93 179 175 176 0 0 1
 31 178 664 0 179 176 180 0 +-.0295 .003 -.0746136241701869 0 1 0 0 0 1 .003 16
 179 662 0 ?99 181 177 178 0 0 1 30 180 710 0 181 178 182 0 +.0325 0 -.074613624
1701869 0 -1 0 16 181 708 0 ?183 184 179 180 0 0 1 31 182 719 0 184 180 185 0 -.
0295 0 -.0746136241701869 0 1 0 0 0 1 .003 16 184 717 0 ?186 187 181 182 0 0 1 3
0 185 728 0 187 182 188 0 -.0295 .003 -.0716136241701869 0 -1 0 16 187 726 0 ?18
9 190 184 185 0 0 1 31 188 734 0 190 185 191 0 +.0295 .003 -.0746136241701869 0
 1 0 0 0 1 .003 16 190 732 0 ?87 192 187 188 0 0 1 30 191 780 0 192 188 193 0 +.
0225 0 .0553863758298131 0 -1 0 16 192 778 0 ?194 195 190 191 0 0 1 31 193 789 0
 195 191 196 0 -.0195 0 .0553863758298131 0 1 0 0 0 1 .003 16 195 787 0 ?72 197
 192 193 0 0 1 30 196 798 0 197 193 198 0 -.0195 .003 .0583863758298131 0 -1 0 1
6 197 796 0 ?69 199 195 196 0 0 1 31 198 806 0 199 196 200 0 +.0195 .003 .055386
3758298131 0 1 0 0 0 1 .003 16 199 804 0 ?75 201 197 198 0 0 1 30 200 854 0 201
 198 202 0 +-.0195 .003 .0583863758298131 0 -1 0 16 201 852 0 ?203 204 199 200 0
 0 1 31 202 865 0 204 200 205 0 --.0195 0 .0553863758298131 0 1 0 0 0 1 .003 16
 204 863 0 ?60 206 201 202 0 0 1 30 205 874 0 206 202 207 0 --.0225 .003 .055386
3758298131 0 -1 0 16 206 872 0 ?57 208 204 205 0 0 1 31 207 880 0 208 205 209 0
 +-.0195 .003 .0553863758298131 0 1 0 0 0 1 .003 16 208 878 0 ?63 210 206 207 0
 0 1 30 209 926 0 210 207 211 0 +-.0225 .003 -.0696136241701869 0 -1 0 16 210 92
4 0 ?212 213 208 209 0 0 1 30 211 938 0 213 209 214 0 --.0245 .003 -.07161362417
01869 0 -1 0 16 213 936 0 ?48 215 210 211 0 0 1 31 214 952 0 215 211 216 0 +-.02
45 0 -.0696136241701869 0 1 0 0 0 1 .002 16 215 942 0 ?45 217 213 214 0 0 1 31 2
16 953 0 217 214 218 0 --.0245 .003 -.0696136241701869 0 1 0 0 0 1 .002 16 217 9
47 0 ?51 219 215 216 0 0 1 30 218 996 0 219 216 220 0 +.0245 0 -.071613624170186
9 0 -1 0 16 219 994 0 ?221 37 217 218 0 0 1 30 220 1008 0 37 218 20 0 -.0225 .00
3 -.0696136241701869 0 -1 0 16 37 1006 0 ?32 24 219 220 0 0 1 31 20 1022 0 24 22
0 7 0 +.0245 0 -.0696136241701869 0 1 0 0 0 1 .002 16 24 1012 0 ?25 10 37 20 0 0
 1 17 221 0 222 84 223 39 224 219 0 29 +15 222 311 0 223 225 0 17 84 0 222 189 2
21 82 29 226 0 186 +17 223 0 222 221 189 33 81 227 0 224 -17 224 0 228 229 30 33
 221 219 0 0 -17 29 0 27 25 186 39 84 226 0 0 -17 186 0 27 29 132 82 90 184 0 23
0 +16 226 989 0 ?84 141 231 232 0 0 1 16 141 503 0 ?132 127 226 233 0 0 1 16 231
 773 0 ?31 226 234 235 0 0 1 30 232 275 0 226 235 233 0 +0 0 -.0716136241701869
 1 0 0 30 235 276 0 231 236 232 0 +.0225 0 0 0 0 -1 30 233 274 0 141 232 142 0 +
.0325 0 -3221629312528355e-33 991270557701033e-31 0 1 30 142 273 0 127 233 159 0
 +0 0 -.141613624170187 1 0 0 30 236 277 0 234 237 235 0 +0 0 .0583863758298131
 -1 0 0 16 234 785 0 ?129 231 238 236 0 0 1 30 237 278 0 238 239 236 0 +-.0225 0
 0 0 0 -1 16 238 861 0 ?240 234 241 237 0 0 1 30 239 279 0 241 242 237 0 +0 0 -.
0716136241701869 1 0 0 16 241 633 0 ?243 238 244 239 0 0 1 30 242 280 0 244 245
 239 0 +-.0325 0 3221629312528355e-33 991270557701033e-31 0 1 16 244 561 0 ?246
 241 247 242 0 0 1 31 245 281 0 247 248 242 0 +-1135007233052986e-32 0 -.1216136
24170187 0 1 0 0 0 1 .002 16 247 233 0 ?249 244 250 245 0 0 1 31 248 282 0 250 2
51 245 0 +-828845533266148e-32 0 -.0966136241701869 0 1 0 0 0 1 .002 16 250 238
 0 ?252 247 253 248 0 0 1 31 251 283 0 253 254 248 0 +-.0155 0 .0204540396754963
5 0 1 0 0 0 1 .00125 16 253 243 0 ?255 250 256 251 0 0 1 31 254 284 0 256 257 25
1 0 +-.0155 0 .0514540396754964 0 1 0 0 0 1 .00125 16 256 248 0 ?258 253 259 254
 0 0 1 31 257 285 0 259 260 254 0 -.0155 0 .0514540396754964 0 1 0 0 0 1 .00125
 16 259 253 0 ?261 256 262 257 0 0 1 31 260 286 0 262 158 257 0 +867361737988404
e-32 0 .03595403967549635 0 1 0 0 0 1 .011 16 262 258 0 ?263 259 0 260 0 0 1 31
 158 88 0 155 264 260 0 -.0155 .003 .02045403967549635 0 1 0 0 0 1 .00125 30 264
 82 0 153 265 158 0 +0 .003 -.141613624170187 1 0 0 16 153 582 0 ?123 155 266 26
4 0 0 1 30 265 77 0 266 267 264 0 +.0325 .003 -3221629312528355e-33 991270557701
033e-31 0 1 16 266 512 0 ?268 153 227 265 0 0 1 30 267 72 0 227 269 265 0 +0 .00
3 -.0716136241701869 1 0 0 16 227 992 0 ?81 266 270 267 0 0 1 30 269 67 0 270 27
1 267 0 +.0225 .003 0 0 0 -1 16 270 776 0 ?38 227 272 269 0 0 1 30 271 60 0 272
 273 269 0 +0 .003 .0583863758298131 -1 0 0 16 272 794 0 ?274 270 275 271 0 0 1
 30 273 55 0 275 276 271 0 +-.0225 .003 0 0 0 -1 16 275 870 0 ?277 272 278 273 0
 0 1 30 276 50 0 278 279 273 0 +0 .003 -.0716136241701869 1 0 0 16 278 636 0 ?28
0 275 281 276 0 0 1 30 279 45 0 281 282 276 0 +-.0325 .003 3221629312528355e-33
 991270557701033e-31 0 1 16 281 564 0 ?283 278 284 279 0 0 1 31 282 40 0 284 285
 279 0 +-1135007233052986e-32 .003 -.121613624170187 0 1 0 0 0 1 .002 16 284 38
 0 ?286 281 287 282 0 0 1 31 285 35 0 287 288 282 0 +-828845533266148e-32 .003 -
.0966136241701869 0 1 0 0 0 1 .002 16 287 33 0 ?289 284 290 285 0 0 1 31 288 30
 0 290 291 285 0 +-.0155 .003 .02045403967549635 0 1 0 0 0 1 .00125 16 290 28 0
 ?292 287 293 288 0 0 1 31 291 25 0 293 294 288 0 +-.0155 .003 .0514540396754964
 0 1 0 0 0 1 .00125 16 293 23 0 ?295 290 296 291 0 0 1 31 294 20 0 296 297 291 0
 -.0155 .003 .0514540396754964 0 1 0 0 0 1 .00125 16 296 18 0 ?298 293 299 294 0
 0 1 31 297 15 0 299 0 294 0 +867361737988404e-32 .003 .03595403967549635 0 1 0
 0 0 1 .011 16 299 13 0 ?300 296 140 297 0 0 1 17 300 0 301 300 300 0 302 299 0
 0 +16 140 185 0 ?303 299 127 159 0 0 1 17 303 0 304 303 303 0 305 140 0 0 +15 3
04 305 0 303 306 0 17 305 0 131 305 305 0 303 140 0 0 -15 131 184 0 305 130 0 14
 255 130 175 307 ?147 308 309 5 310 -0 0 147 308 22 81 1 307 1322 311 130 312 0
 0 313 314 14 147 532 313 ?315 130 143 5 316 +0 0 315 130 22 14 308 1 317 ?130 3
06 318 5 319 +0 0 130 306 22 15 309 177 0 263 130 320 50 255 310 271 0 130 319 3
21 0 +0 0 0 0 1 0 0 0 1 13 22 118 0 0 0 0 0 0 9 16 14 16 322 322 ?323 0 324 5 32
5 -0 0 323 0 22 81 1 322 1328 311 16 326 0 317 327 328 14 323 320 327 ?329 16 33
0 5 331 -0 0 329 16 22 15 324 321 0 246 16 0 50 325 355 0 16 331 332 0 +-.0325 .
003 3221629312528355e-33 1 0 -991270557701033e-31 -991270557701033e-31 0 -1 50 3
31 354 0 323 333 325 0 +0 .003 -.0716136241701869 0 0 -1 -1 0 0 51 332 356 0 334
 325 335 0 --1135007233052986e-32 .003 -.121613624170187 0 -1 0 .002 0 0 -1 14 3
34 324 336 ?337 151 338 5 332 +0 0 337 151 22 51 335 357 0 337 332 339 0 --82884
5533266148e-32 .003 -.0966136241701869 0 -1 0 .002 0 0 -1 14 337 328 340 ?341 33
4 342 5 335 +0 0 341 334 22 51 339 358 0 341 335 343 0 --.0155 .003 .02045403967
549635 0 -1 0 .00125 0 0 -1 14 341 332 344 ?345 337 346 5 339 +0 0 345 337 22 51
 343 359 0 345 339 347 0 --.0155 .003 .0514540396754964 0 -1 0 .00125 0 0 -1 14
 345 336 348 ?349 341 350 5 343 +0 0 349 341 22 51 347 360 0 349 343 351 0 +.015
5 .003 .0514540396754964 0 -1 0 .00125 0 0 -1 14 349 340 352 ?353 345 354 5 347
 -0 0 353 345 22 51 351 361 0 353 347 316 0 -867361737988404e-32 .003 .035954039
67549635 0 -1 0 .011 0 0 -1 14 353 344 355 ?306 349 301 5 351 +0 0 306 349 22 51
 316 544 0 147 351 356 0 +.0295 .003 -.138613624170187 0 -1 0 .003 0 0 -1 51 356
 616 0 315 316 357 0 +-.0295 .003 -.138613624170187 0 1 0 .003 0 0 1 14 315 604
 358 ?359 147 360 5 356 +0 0 359 147 22 51 357 686 0 359 356 361 0 +-.0295 .003
 -.0746136241701869 0 -1 0 .003 0 0 -1 14 359 674 362 ?363 315 364 5 357 +0 0 36
3 315 22 51 361 756 0 363 357 365 0 +.0295 .003 -.0746136241701869 0 1 0 .003 0
 0 1 14 363 744 366 ?367 359 368 5 361 +0 0 367 359 22 51 365 830 0 367 361 369
 0 +.0195 .003 .0553863758298131 0 1 0 .003 0 0 1 14 367 818 370 ?371 363 372 5
 365 +0 0 371 363 22 51 369 902 0 371 365 19 0 +-.0195 .003 .0553863758298131 0
 -1 0 .003 0 0 -1 14 371 890 373 ?374 367 375 5 369 +0 0 374 367 22 51 19 972 0
 374 369 6 0 +-.0245 .003 -.0696136241701869 0 -1 0 .002 0 0 -1 14 374 960 376 ?
18 371 377 5 19 -0 0 18 371 22 81 1 376 1354 311 374 378 0 373 379 380 14 18 103
0 379 ?0 374 228 5 6 -0 0 0 374 22 15 377 961 0 381 374 0 17 381 0 377 382 383 4
6 51 217 0 0 -17 382 0 377 54 381 43 48 213 0 0 -17 383 0 377 381 54 49 212 210
 0 0 -17 51 0 384 385 280 49 381 217 0 277 +15 384 11 0 385 308 386 17 385 0 384
 63 51 55 277 275 0 387 -17 280 0 384 51 99 46 388 278 0 381 +17 277 0 389 212 5
7 49 385 275 0 383 +15 389 317 0 277 329 0 17 212 0 389 390 277 52 383 210 0 240
 +17 57 0 389 277 390 55 391 206 0 385 +17 390 0 389 57 212 58 240 238 0 391 -17
 391 0 375 66 387 58 57 206 0 0 -15 375 891 0 387 371 0 17 66 0 375 392 391 64 6
0 204 0 203 -17 387 0 375 391 392 55 63 208 0 0 -17 392 0 375 387 66 61 203 201
 0 0 -17 63 0 384 393 385 61 387 208 0 274 +17 393 0 384 75 63 67 274 272 0 394
 -17 274 0 395 203 69 61 393 272 0 392 +15 395 315 0 274 396 0 17 203 0 395 397
 274 64 392 201 0 129 +17 69 0 395 274 397 67 398 197 0 393 +17 397 0 395 69 203
 70 129 234 0 398 -17 398 0 372 78 394 70 69 197 0 0 -15 372 819 0 394 367 0 17
 78 0 372 399 398 76 72 195 0 194 -17 394 0 372 398 399 67 75 199 0 0 -17 399 0
 372 394 78 73 194 192 0 0 -17 75 0 384 38 393 73 394 199 0 35 +17 38 0 384 23 7
5 26 35 270 0 229 +17 35 0 34 194 32 73 38 270 0 399 -15 34 313 0 31 400 0 17 19
4 0 34 31 35 76 399 192 0 28 +17 31 0 34 32 194 11 28 231 0 36 +17 28 0 27 72 25
 76 31 231 0 0 -17 72 0 27 129 28 70 78 195 0 397 +17 129 0 27 60 72 64 397 234
 0 0 +17 60 0 27 240 129 58 66 204 0 390 +17 240 0 27 45 60 52 390 238 0 0 +17 4
5 0 27 401 240 43 54 215 0 243 +17 401 0 27 96 45 100 243 241 0 0 -17 54 0 377 3
83 382 52 45 215 0 212 -17 243 0 330 48 174 43 401 241 0 382 +15 330 319 0 243 3
23 0 17 48 0 330 388 243 46 382 213 0 280 +17 174 0 330 243 388 100 402 172 0 40
1 +17 388 0 330 174 48 97 280 278 0 402 -17 402 0 364 403 102 97 174 172 0 0 -15
 364 675 0 403 359 0 17 403 0 364 404 402 91 99 179 0 0 -17 102 0 364 402 404 10
0 96 175 0 174 -17 404 0 364 102 403 94 93 177 0 0 -17 96 0 27 135 401 94 102 17
5 0 246 +17 135 0 27 108 96 112 246 244 0 0 -17 246 0 324 93 166 94 135 244 0 40
4 +17 93 0 324 405 246 91 404 177 0 283 +17 166 0 324 246 405 112 406 164 0 135
 +17 405 0 324 166 93 109 283 281 0 406 -17 406 0 360 407 114 109 166 164 0 0 -1
5 360 605 0 407 315 0 17 407 0 360 139 406 103 111 170 0 0 -17 114 0 360 406 139
 112 108 136 0 166 -17 139 0 360 114 407 106 105 168 0 0 -17 105 0 137 123 126 1
03 139 168 0 152 +17 152 0 384 111 154 103 123 153 0 407 -17 111 0 384 283 152 1
09 407 170 0 405 +17 154 0 384 152 408 121 146 162 0 144 +17 408 0 384 154 87 11
5 268 266 0 146 -17 146 0 143 145 144 115 154 162 0 0 -17 87 0 384 408 81 85 409
 190 0 268 +17 268 0 410 183 117 85 408 266 0 411 +15 410 309 0 268 412 0 17 183
 0 410 134 268 88 411 181 0 132 +17 117 0 410 268 134 115 145 149 0 408 +17 411
 0 368 409 90 85 183 181 0 0 -15 368 745 0 409 363 0 17 409 0 368 230 411 79 87
 190 0 0 -17 90 0 368 411 230 88 186 184 0 183 -17 230 0 368 90 409 82 189 187 0
 0 -17 189 0 222 223 84 79 230 187 0 409 +17 134 0 410 117 183 118 132 141 0 145
 -17 132 0 27 186 120 88 134 141 0 0 +14 412 310 413 ?151 225 410 5 414 +0 0 151
 225 22 81 1 413 1358 311 412 415 0 379 416 417 14 151 308 416 ?334 412 137 5 41
8 +0 0 334 412 22 14 225 312 419 ?412 400 222 5 420 -0 0 412 400 22 50 414 349 0
 412 418 420 0 +.0325 .003 -3221629312528355e-33 1 0 -991270557701033e-31 -99127
0557701033e-31 0 -1 50 418 348 0 151 321 414 0 +0 .003 -.141613624170187 0 0 -1
 -1 0 0 50 420 350 0 225 414 421 0 +0 .003 -.0716136241701869 0 0 -1 -1 0 0 50 4
21 351 0 400 420 422 0 +.0225 .003 0 -1 0 0 0 0 1 14 400 314 423 ?225 396 34 5 4
21 -0 0 225 396 22 50 422 352 0 396 421 333 0 +0 .003 .0583863758298131 0 0 1 1
 0 0 14 396 316 424 ?400 329 395 5 422 +0 0 400 329 22 50 333 353 0 329 422 331
 0 +-.0225 .003 0 -1 0 0 0 0 1 14 329 318 425 ?396 323 389 5 333 +0 0 396 323 22
 81 1 425 1368 311 329 426 0 424 427 428 80 7 CCCCCDI12 legal_owners0 16 1 lCZ1
 311 429 430 9000 1 1 1 1 1 1 1 1 0 FFFFTFTFFFFFFFFF1 81 3 426 1367 431 329 432
 425 433 434 435 0 0 81 1 424 1366 311 396 433 0 423 425 436 81 1 427 1370 311 3
06 434 0 425 0 437 82 255 1 428 702611643 14 306 304 427 ?308 353 438 5 321 -0 0
 308 353 22 81 3 434 1369 431 306 439 427 426 0 440 0 0 82 1 437 701169844 80 3
 431 441 442 9000 0 0 0 0 3 5 0 0 0 FFFFTFFFFFFFFFFF1 1 1 81 1 439 1230 443 306
 0 434 444 445 446 82 6 440 0 -101517555 31133740 0 0 0 80 1 443 0 447 8001 0 0
 0 0 3 5 0 0 0 FFFFTFTFFFFFFFFF2 81 1 444 1229 443 353 0 448 449 439 450 81 1 44
5 1231 443 308 0 451 439 452 453 83 255 3 446 .698039215686275 .698039215686275
 .698039215686275 81 3 451 1325 431 308 445 317 454 326 455 0 0 81 1 452 1232 44
3 130 0 312 445 456 457 83 3 453 .698039215686275 .698039215686275 .698039215686
275 81 3 312 1321 431 130 452 307 0 454 458 0 0 81 1 456 1233 443 147 0 454 452
 459 460 83 3 457 .698039215686275 .698039215686275 .698039215686275 81 3 454 13
23 431 147 456 313 312 451 461 0 0 81 1 459 1234 443 315 0 462 456 463 464 83 3
 460 .698039215686275 .698039215686275 .698039215686275 81 3 462 1343 431 315 45
9 358 448 465 466 0 0 81 1 463 1235 443 359 0 465 459 467 468 83 3 464 .69803921
5686275 .698039215686275 .698039215686275 81 3 465 1345 431 359 463 362 462 469
 470 0 0 81 1 467 1236 443 363 0 469 463 471 472 83 3 468 .698039215686275 .6980
39215686275 .698039215686275 81 3 469 1347 431 363 467 366 465 473 474 0 0 81 1
 471 1237 443 367 0 473 467 475 476 83 3 472 .698039215686275 .698039215686275 .
698039215686275 81 3 473 1349 431 367 471 370 469 477 478 0 0 81 1 475 1238 443
 371 0 477 471 479 480 83 3 476 .698039215686275 .698039215686275 .6980392156862
75 81 3 477 1351 431 371 475 373 473 378 481 0 0 81 1 479 1239 443 374 0 378 475
 482 483 83 3 480 .698039215686275 .698039215686275 .698039215686275 81 3 378 13
53 431 374 479 376 477 484 485 0 0 81 1 482 1240 443 18 0 484 479 0 486 83 3 483
 .698039215686275 .698039215686275 .698039215686275 81 3 484 1355 431 18 482 379
 378 415 487 0 0 83 3 486 .698039215686275 .698039215686275 .698039215686275 81
 1 379 1356 311 18 484 0 376 413 488 81 3 415 1357 431 412 489 413 484 490 491 0
 0 82 6 487 0 -101255206 31133740 0 0 0 81 1 489 1222 443 412 0 415 492 493 494
 81 3 490 1359 431 151 493 416 415 495 496 0 0 82 6 491 0 -101345213 31133740 0
 0 0 81 1 493 1223 443 151 0 490 489 497 498 81 1 416 1360 311 151 490 0 413 419
 499 81 3 495 1361 431 225 492 419 490 500 501 0 0 82 6 496 0 -101390293 3113374
0 0 0 0 81 1 492 1221 443 225 0 495 502 489 503 81 1 419 1362 311 225 495 0 416
 423 504 81 3 500 1363 431 400 502 423 495 433 505 0 0 82 6 501 0 -101255206 311
33740 0 0 0 81 1 502 1220 443 400 0 500 506 492 507 81 1 423 1364 311 400 500 0
 419 424 508 81 3 433 1365 431 396 506 424 500 426 509 0 0 82 6 505 0 -101255206
 31133740 0 0 0 81 1 506 1219 443 396 0 433 432 502 510 82 6 509 0 -101295206 31
133740 0 0 0 81 1 432 1218 443 329 0 426 511 506 512 83 3 510 .698039215686275 .
698039215686275 .698039215686275 81 1 511 1217 443 323 0 513 514 432 515 83 3 51
2 .698039215686275 .698039215686275 .698039215686275 81 3 513 1329 431 323 511 3
27 326 516 517 0 0 81 1 514 1216 443 16 0 326 0 511 518 83 3 515 .69803921568627
5 .698039215686275 .698039215686275 81 3 326 1327 431 16 514 322 451 513 519 0 0
 83 3 518 .698039215686275 .698039215686275 .698039215686275 82 6 519 0 -1013652
11 31133740 0 0 0 81 1 327 1330 311 323 513 0 322 336 520 81 3 516 1331 431 334
 497 336 513 521 522 0 0 82 6 517 0 -101275215 31133740 0 0 0 81 1 497 1224 443
 334 0 516 493 523 524 81 1 336 1332 311 334 516 0 327 340 525 81 3 521 1333 431
 337 523 340 516 526 527 0 0 82 6 522 0 -101517555 31133740 0 0 0 81 1 523 1225
 443 337 0 521 497 528 529 81 1 340 1334 311 337 521 0 336 344 530 81 3 526 1335
 431 341 528 344 521 531 532 0 0 82 6 527 0 -101517555 31133740 0 0 0 81 1 528 1
226 443 341 0 526 523 533 534 81 1 344 1336 311 341 526 0 340 348 535 81 3 531 1
337 431 345 533 348 526 536 537 0 0 82 6 532 0 -101517555 31133740 0 0 0 81 1 53
3 1227 443 345 0 531 528 449 538 81 1 348 1338 311 345 531 0 344 352 539 81 3 53
6 1339 431 349 449 352 531 448 540 0 0 82 6 537 0 -101517555 31133740 0 0 0 81 1
 449 1228 443 349 0 536 533 444 541 81 1 352 1340 311 349 536 0 348 355 542 81 3
 448 1341 431 353 444 355 536 462 543 0 0 82 6 540 0 -101517555 31133740 0 0 0 8
1 1 355 1342 311 353 448 0 352 358 544 82 6 543 0 -101517555 31133740 0 0 0 81 1
 358 1344 311 315 462 0 355 362 545 82 1 544 704839860 81 1 362 1346 311 359 465
 0 358 366 546 82 1 545 726794422 81 1 366 1348 311 363 469 0 362 370 547 82 1 5
46 736166071 81 1 370 1350 311 367 473 0 366 373 548 82 1 547 745406648 81 1 373
 1352 311 371 477 0 370 376 549 82 1 548 754647225 82 1 549 764149946 82 1 542 7
04446644 83 3 541 .698039215686275 .698039215686275 .698039215686275 82 1 539 70
4184500 83 3 538 .698039215686275 .698039215686275 .698039215686275 82 1 535 703
922356 83 3 534 .698039215686275 .698039215686275 .698039215686275 82 1 530 7036
60212 83 3 529 .698039215686275 .698039215686275 .698039215686275 82 1 525 70339
8068 83 3 524 .698039215686275 .698039215686275 .698039215686275 82 1 520 702742
715 82 1 508 702152892 83 3 507 .698039215686275 .698039215686275 .6980392156862
75 82 1 504 701825212 83 3 503 .698039215686275 .698039215686275 .69803921568627
5 82 1 499 701563062 83 3 498 .698039215686275 .698039215686275 .698039215686275
 83 3 494 .698039215686275 .698039215686275 .698039215686275 82 1 488 782762172
 82 6 485 0 -101275215 31133740 0 0 0 82 6 481 0 -101295206 31133740 0 0 0 82 6
 478 0 -101315212 31133740 0 0 0 82 6 474 0 -101345213 31133740 0 0 0 82 6 470 0
 -101365211 31133740 0 0 0 82 6 466 0 -101390293 31133740 0 0 0 81 1 313 1324 31
1 147 454 0 307 317 550 82 6 461 0 -101410286 31133740 0 0 0 81 1 317 1326 311 3
08 451 0 313 322 551 82 1 550 717488309 82 1 551 677642428 82 6 458 0 -101255206
 31133740 0 0 0 82 6 455 0 -101255206 31133740 0 0 0 83 3 450 .698039215686275 .
698039215686275 .698039215686275 79 255 15 447 SDL/TYSA_COLOUR79 18 442 DOWNSTRE
AM_FACE_ID15 438 303 0 552 306 304 51 321 347 0 306 310 418 0 +.0155 .003 .02045
403967549635 0 -1 0 .00125 0 0 -1 17 552 0 438 552 552 0 157 155 0 0 -17 157 0 3
86 157 157 0 552 155 0 0 +15 386 12 0 157 308 0 82 1 436 702415034 82 6 435 0 -1
01275215 31133740 0 0 0 79 14 430 SWEntUnchanged82 1 417 701694136 17 81 0 384 8
7 23 79 223 227 0 189 +17 23 0 384 81 38 33 229 10 0 223 +17 229 0 228 36 224 26
 23 10 0 0 -15 228 1031 0 229 18 0 17 36 0 228 30 229 11 32 37 0 0 -17 30 0 228
 224 36 39 25 24 0 221 -17 283 0 384 99 111 91 405 281 0 403 +17 99 0 384 280 28
3 97 403 179 0 388 +82 1 380 773521595 15 301 343 0 300 353 553 15 553 345 0 554
 353 0 17 554 0 553 554 554 0 263 262 0 0 -17 263 0 309 263 263 0 554 262 0 0 +1
5 354 339 0 555 349 556 17 555 0 354 555 555 0 298 296 0 0 -15 556 341 0 261 349
 0 17 261 0 556 261 261 0 557 259 0 0 +17 557 0 320 557 557 0 261 259 0 0 -15 32
0 178 0 557 130 558 15 558 179 0 258 130 559 17 258 0 558 258 258 0 560 256 0 0
 +15 559 180 0 255 130 561 17 255 0 559 255 255 0 562 253 0 0 +15 561 181 0 252
 130 563 17 252 0 561 252 252 0 564 250 0 0 +15 563 182 0 249 130 27 17 249 0 56
3 249 249 0 565 247 0 0 +17 565 0 566 565 565 0 249 247 0 0 -15 566 325 0 565 33
4 0 17 564 0 567 564 564 0 252 250 0 0 -15 567 329 0 564 337 0 17 562 0 568 562
 562 0 255 253 0 0 -15 568 333 0 562 341 0 17 560 0 569 560 560 0 258 256 0 0 -1
5 569 337 0 560 345 0 17 298 0 570 298 298 0 555 296 0 0 +15 570 6 0 298 308 571
 15 571 7 0 572 308 573 17 572 0 571 572 572 0 295 293 0 0 -15 573 8 0 574 308 5
75 17 574 0 573 574 574 0 292 290 0 0 -15 575 9 0 576 308 577 17 576 0 575 576 5
76 0 289 287 0 0 -15 577 10 0 578 308 384 17 578 0 577 578 578 0 286 284 0 0 -17
 286 0 338 286 286 0 578 284 0 0 +15 338 323 0 286 334 566 17 289 0 342 289 289
 0 576 287 0 0 +15 342 327 0 289 337 567 17 292 0 346 292 292 0 574 290 0 0 +15
 346 331 0 292 341 568 17 295 0 350 295 295 0 572 293 0 0 +15 350 335 0 295 345
 569 82 1 328 703070391 50 319 3 0 308 0 310 0 +0 .003 0 0 1 0 0 0 1 15 318 5 0
 302 308 570 17 302 0 318 302 302 0 300 299 0 0 -82 1 314 697565372 19 17 371 0
 1 0 9 5 0 S0 74 4 CI16 index_map_offset0 0 1 dCCZ20 15 12 0 0 579 580 434 581 5
82 427 583 584 585 13 482 2 0 0 0 0 0 0 0 0 81 2 579 115 586 1 0 580 0 0 0 587 8
1 5 580 116 588 1 579 581 0 0 589 0 0 0 0 81 2 581 468 590 1 580 582 0 0 0 591 8
1 2 582 469 592 1 581 583 0 0 593 0 81 1 583 1056 594 1 582 584 0 0 595 81 2 584
 1083 596 1 583 585 0 0 0 597 81 2 585 1096 598 1 584 13 0 0 599 0 81 2 13 1125
 600 1 585 2 0 0 0 0 80 2 600 601 602 9000 0 0 0 0 3 5 0 0 0 FFTFFFFFFFFFFFFF9 1
 79 16 602 BODY_RECIPE_200180 2 598 603 604 8004 0 0 0 0 3 5 0 0 0 FFTFFFFFFFFFF
FFF2 3 83 1 599 1 79 16 604 SDL/TYSA_DENSITY80 2 596 605 606 9000 0 0 0 0 3 5 0
 0 0 FFTFFFFFFFFFFFFF9 1 82 1 597 1 79 24 606 BODY_IN_LIGHTWEIGHT_PERM80 1 594 6
07 608 9000 1 1 1 1 1 1 1 1 0 FFTFFFFFFFFFFFFF1 82 1 595 338018 79 10 608 BODY_M
ATCH80 2 592 609 610 9000 0 0 0 0 3 5 0 0 0 FFTFTTTFFTFFFFFF3 3 84 255 7 593 Fil
let979 21 610 SWIMPLICITBODYNAME_ID80 2 590 611 612 9000 0 0 0 0 3 5 0 0 0 FFTFF
FFFFFFFFFFF9 1 82 1 591 78 79 30 612 LAST_BODY_MODIFYING_FEATURE_ID80 5 588 613
 614 9000 0 0 0 0 3 6 0 0 0 FFTTTTTTFTTFTTFF2 2 2 2 2 83 1 589 1 79 19 614 BODY_
SCALING_FACTOR80 2 586 615 616 9000 0 0 0 0 3 5 0 0 0 FFTFFFFFFFFFFFFF9 1 82 1 5
87 200 79 19 616 ENT_TIME_STAMP_200180 2 12 617 618 9000 0 0 0 0 3 5 0 0 0 FFTFF
FFFFFFFFFFF9 1 82 1 14 101 79 12 618 ATOM_ID_20011 0 
