**ABCDEFGHIJKLMNOPQRSTUVWXYZabcdefghijklmnopqrstuvwxyz**************************
**PARASOLID !"#$%&'()*+,-./:;<=>?@[\]^_`{|}~0123456789**************************
**PART1;
MC=AMD64;
MC_MODEL=Intel64 Family 6 Model 154 Stepping 3, GenuineIntel;
MC_ID=unknown;
OS=Windows_NT;
OS_RELEASE=unknown;
FRU=Parasolid Version 34.1, build 225,  5-24-2022;
APPL=SOLIDWORKS 2023-2022300;
SITE=;
USER=unknown;
FORMAT=text;
GUISE=transmit;
KEY=Assembly Casing;
FILE=Assembly Casing.x_t;
DATE=Fri Sep 27 13:49:52 2024;
**PART2;
SCH=SCH_3401225_34101;
USFLD_SIZE=0;
**PART3;
**END_OF_HEADER*****************************************************************
T51 : TRANSMIT FILE created by modeller version 340122523 SCH_3401225_34101_1300
6231 0 10 21 CCCCI7 lattice222 0 CCCI4 mesh1006 0 I8 polyline1008 0 CCCCCCCCCCA1
6 mesh_offset_data206 0 Z1 11 2 3 0 0 0 0 0 0 0 0 1e3 1e-8 0 0 0 1 0 1 4 0 81 25
5 1 2 11 5 1 0 0 0 0 0 70 11 CI9 list_type0 0 1 uI10 notransmit0 0 1 lCCCDCCDI12
 finger_index0 0 1 dI12 finger_block1012 0 CZ3 0 4 T1 0 0 1 20 1 6 6 11 255 4 9
 0 1 7 8 1 9 0 10 0 12 36 CCCI7 lattice222 0 CCCI4 mesh1006 0 I8 polyline1008 0
 CCCCCCCDI5 owner1040 0 CCCI16 boundary_lattice222 0 CCCI13 boundary_mesh1006 0
 I17 boundary_polyline1008 0 CCCA16 index_map_offset0 0 1 dA9 index_map82 0 A17
 node_id_index_map82 0 A20 schema_embedding_map82 0 A5 child12 0 A14 lowest_node
_id0 0 1 dA16 mesh_offset_data206 0 Z7 1416 11 12 0 0 0 0 0 0 0 1e3 1e-8 4 13 0
 1 0 1 1 14 0 15 16 17 0 0 18 19 20 0 0 0 0 0 0 0 100 10 CCCCCCCCCA9 precision22
9 0 Z8 10 4 0 0 -244786049911971e-30 -1 837741457538553e-32 1 -244786049911971e-
30 680011602582908e-30 -680011602582908e-30 837741457538568e-32 1 -.030183616440
7887 -.00597551765798153 -.126764040300898 1 3 ?0 11 9 7 0 1 13 21 1 10 4 22 0 1
2 13 1234 23 24 0 0 0 0 0 0 0 1e3 1e-8 9 25 7 1 0 1 1 26 0 27 28 29 0 0 30 31 32
 0 0 0 0 0 0 0 100 21 8 9 0 0 0 1 0 1 0 -1110223024625156e-31 -1110223024625156e
-31 0 -1 -.0661836164407887 .01302448234201846 -.1098100006254016 1 3 ?0 11 10 5
 0 1 7 33 1 22 9 0 4 100 33 6 10 0 0 -244735064989669e-30 1 1097229935117062e-32
 -1 -244735064989669e-30 -11518563880486e-28 -11518563880486e-28 -10972299351170
9e-31 1 .0258163835592113 .03202448234201845 -.126764040300898 1 3 ?0 11 22 3 0
 1 13 34 1 35 10 0 9 100 34 4 22 0 0 0 -1 0 -1 0 1665334536937735e-31 -166533453
6937735e-31 0 -1 .0618163835592113 .01302448234201848 -.1098100006254016 1 3 ?0
 11 35 1 0 1 25 36 1 0 22 0 0 12 25 587 37 38 0 0 0 0 0 0 0 1e3 1e-8 35 39 13 1
 0 1 1 40 0 41 42 43 0 0 44 45 46 0 0 0 0 0 0 0 100 36 2 35 0 0 1 0 0 0 1 0 0 0
 1 -.002183616440788675 -.01097551765798152 -.0076963764552147 1 1 ?0 81 1 37 58
7 5 25 47 0 0 0 48 70 38 0 4 T25 0 0 5 20 1 49 49 13 255 40 99 0 25 0 50 0 0 51
 0 50 255 41 94 0 50 52 0 0 +-.061 .048 .0495 1 0 0 0 0 -1 31 255 42 308 0 53 54
 0 0 +-.057 .024 .0195 -1 0 0 0 0 1 .002 29 255 43 150 0 46 55 0 .057 .048 -.045
5 19 9 CCCCCCI5 frame230 0 CA5 owner12 0 Z44 33 0 25 51 0 56 0 V0 16 255 45 82 0
 ?57 0 58 59 0 0 25 18 255 46 148 0 60 0 61 43 ?25 17 255 60 0 62 63 64 46 65 66
 0 67 +18 61 30 0 68 46 69 70 ?25 17 68 0 71 72 73 61 74 75 0 76 +18 69 27 0 73
 61 77 78 ?25 29 70 32 0 61 78 79 -.061 .048 -.0495 29 78 29 0 69 80 70 .061 .04
8 -.0495 29 79 78 0 81 70 82 -.061 0 .0495 18 81 69 0 83 84 85 79 ?25 29 82 77 0
 84 79 86 .061 0 .0495 18 84 68 0 87 88 81 82 ?25 29 86 76 0 88 82 55 .061 0 -.0
495 18 88 67 0 89 90 84 86 ?25 29 55 75 0 90 86 43 -.061 0 -.0495 18 90 66 0 91
 92 88 55 ?25 17 91 0 93 76 94 90 95 96 0 97 +18 92 21 0 98 77 90 99 ?25 17 98 0
 100 57 101 92 102 103 0 72 -18 77 24 0 102 69 92 80 ?25 29 99 23 0 92 104 80 -.
061 .048 .0495 29 104 248 0 105 106 99 .057 .048 .0455 29 80 26 0 77 99 78 .061
 .048 .0495 18 105 201 0 64 107 108 104 ?25 29 106 249 0 108 109 104 -.057 .048
 .0455 18 108 203 0 110 105 111 106 ?25 29 109 250 0 111 112 106 -.057 .048 -.04
55 18 111 205 0 113 108 0 109 ?25 29 112 252 0 85 114 109 .057 .004 .0455 18 85
 198 0 115 81 116 112 ?25 29 114 253 0 116 117 112 -.057 .004 .0455 18 116 200 0
 118 85 119 114 ?25 29 117 254 0 119 120 114 -.057 .004 -.0455 18 119 202 0 121
 116 107 117 ?25 29 120 255 0 107 0 117 .057 .004 -.0455 18 107 204 0 63 119 105
 120 ?25 17 63 0 62 122 60 107 67 123 0 124 -15 255 62 209 0 60 125 0 17 122 0 6
2 64 63 85 126 127 0 128 -17 67 0 129 130 124 46 63 123 0 131 +16 123 173 0 ?67
 132 133 134 0 0 25 17 124 0 129 67 121 107 135 136 0 126 -15 129 221 0 130 137
 0 17 121 0 129 124 130 119 113 132 0 138 -17 135 0 139 140 126 119 124 136 0 0
 +16 136 182 0 ?135 141 127 142 0 0 25 17 126 0 139 135 128 107 122 127 0 0 +15
 139 224 0 126 143 0 17 128 0 139 126 140 85 144 133 0 0 +16 127 170 0 ?126 136
 145 146 0 0 25 16 145 195 0 ?147 127 148 149 0 0 25 30 255 146 247 0 127 150 14
2 0 +.057 .004 -.0455 0 0 -1 31 150 429 0 151 152 146 0 +.057 .024 .0195 1 0 0 0
 0 -1 .002 30 142 246 0 136 146 153 0 +-.057 .004 -.0455 -1 0 0 30 153 245 0 141
 142 154 0 +-.057 .004 -.0455 0 0 1 16 141 178 0 ?140 133 136 153 0 0 25 30 154
 244 0 133 153 155 0 +-.057 .004 .0455 1 0 0 16 133 174 0 ?128 123 141 154 0 0 2
5 30 155 243 0 66 154 156 0 +.057 .048 -.0455 0 0 -1 16 66 186 0 ?60 157 151 155
 0 0 25 30 156 242 0 157 155 158 0 +-.057 .048 -.0455 -1 0 0 16 157 189 0 ?130 1
48 66 156 0 0 25 30 158 241 0 148 156 149 0 +-.057 .048 -.0455 0 0 1 16 148 192
 0 ?159 145 157 158 0 0 25 30 149 240 0 145 158 160 0 +-.057 .048 .0455 1 0 0 30
 160 239 0 161 149 162 0 +.057 .004 .0455 0 1 0 16 161 177 0 ?64 163 164 160 0 0
 25 30 162 238 0 164 160 165 0 +-.057 .004 .0455 0 1 0 16 164 181 0 ?110 161 132
 162 0 0 25 30 165 237 0 132 162 134 0 +-.057 .004 -.0455 0 1 0 16 132 185 0 ?11
3 164 123 165 0 0 25 30 134 236 0 123 165 166 0 +.057 .004 -.0455 0 1 0 30 166 7
 0 167 134 168 0 +-.061 .048 .0495 0 0 1 16 167 5 0 ?72 103 96 166 0 0 25 30 168
 11 0 103 166 169 0 +.061 .048 .0495 1 0 -1137523590804464e-31 16 103 9 0 ?102 1
70 167 168 0 0 25 30 169 15 0 170 168 171 0 +.061 .048 .0495 0 0 -1 16 170 13 0
 ?73 75 103 169 0 0 25 30 171 19 0 75 169 172 0 +.061 .048 -.0495 -1 0 113752359
0804464e-31 16 75 17 0 ?68 173 170 171 0 0 25 30 172 74 0 163 171 174 0 +-.061 0
 .0495 0 0 1 16 163 62 0 ?175 176 161 172 0 0 25 30 174 73 0 176 172 177 0 +.061
 0 .0495 1 0 -1137523590804464e-31 16 176 58 0 ?87 178 163 174 0 0 25 30 177 72
 0 178 174 179 0 +.061 0 .0495 0 0 -1 16 178 54 0 ?89 96 176 177 0 0 25 30 179 7
1 0 96 177 180 0 +.061 0 -.0495 -1 0 1137523590804464e-31 16 96 50 0 ?91 167 178
 179 0 0 25 30 180 95 0 173 179 181 0 +-.061 .048 -.0495 0 -1 0 16 173 79 0 ?97
 182 75 180 0 0 25 30 181 96 0 182 180 183 0 +.061 .048 -.0495 0 -1 0 16 182 80
 0 ?94 58 173 181 0 0 25 30 183 97 0 58 181 59 0 +.061 .048 .0495 0 -1 0 16 58 8
1 0 ?184 45 182 183 0 0 25 30 59 98 0 45 183 54 0 +-.061 .048 .0495 0 -1 0 31 54
 300 0 185 59 42 0 +-.057 .024 -.0055 -1 0 0 0 0 1 .002 16 185 394 0 ?186 187 18
8 54 0 0 25 17 186 0 189 186 186 0 190 185 0 0 +16 187 390 0 ?191 53 185 152 0 0
 25 16 188 361 0 ?192 185 193 194 0 0 25 17 192 0 195 192 192 0 196 188 0 0 +16
 193 365 0 ?197 188 198 199 0 0 25 31 194 434 0 188 0 199 0 +-.061 .024 .0195 1
 0 0 0 0 -1 .002 31 199 433 0 193 194 200 0 +.061 .024 .0195 1 0 0 0 0 -1 .002 3
1 200 432 0 198 199 201 0 +.061 .024 -.0055 1 0 0 0 0 -1 .002 16 198 395 0 ?202
 193 203 200 0 0 25 31 201 431 0 203 200 152 0 +-.061 .024 -.0055 1 0 0 0 0 -1 .
002 16 203 391 0 ?204 198 0 201 0 0 25 31 152 430 0 187 201 150 0 +.057 .024 -.0
055 1 0 0 0 0 -1 .002 17 204 0 205 204 204 0 206 203 0 0 +15 205 344 0 204 50 20
7 17 206 0 208 206 206 0 204 203 0 0 -15 208 406 0 206 209 210 14 255 209 403 21
1 ?212 143 208 40 213 -214 214 212 143 56 15 210 407 0 190 209 0 17 190 0 210 19
0 190 0 186 185 0 0 -81 1 211 583 215 209 216 0 217 218 219 14 212 373 218 ?214
 209 220 40 221 -222 222 214 209 56 14 143 222 217 ?209 137 139 40 223 +0 0 209
 137 56 51 255 213 425 0 214 221 223 0 +-.061 .024 -.0055 1 0 0 .002 0 0 -1 14 2
14 398 224 ?222 212 225 40 213 -209 209 222 212 56 13 56 34 0 0 0 0 0 0 44 50 14
 50 90 226 ?227 0 195 40 41 -0 0 227 0 56 81 1 226 572 215 50 228 0 0 229 230 14
 227 88 229 ?231 50 100 40 52 -0 0 231 50 56 15 195 352 0 192 50 205 81 1 229 57
3 215 227 232 0 226 233 234 14 231 86 233 ?235 227 236 40 237 -0 0 235 227 56 15
 100 87 0 87 227 0 50 52 93 0 227 237 41 0 +.061 .048 .0495 -1137523590804464e-3
1 0 -1 -1 0 1137523590804464e-31 50 237 92 0 231 238 52 0 +.061 .048 .0495 -1 0
 0 0 0 1 50 238 91 0 235 239 237 0 +.061 .048 -.0495 1137523590804464e-31 0 1 1
 0 -1137523590804464e-31 14 235 84 240 ?241 231 93 40 238 -0 0 241 231 56 50 239
 70 0 242 243 238 0 +0 0 0 0 1 0 0 0 1 14 242 48 244 ?125 241 245 40 239 -0 0 12
5 241 56 50 243 3 0 241 246 239 0 +0 .048 0 0 1 0 0 0 1 14 241 1 247 ?242 235 24
8 40 243 +0 0 242 235 56 50 246 230 0 125 249 243 0 +.057 .004 -.0455 1 0 0 0 0
 -1 14 125 206 250 ?251 242 252 40 246 -0 0 251 242 56 50 249 231 0 137 253 246
 0 +-.057 .004 -.0455 0 0 -1 -1 0 0 14 137 218 254 ?143 255 129 40 249 -0 0 143
 255 56 50 253 232 0 255 256 249 0 +-.057 .004 -.0455 -1 0 0 0 0 1 14 255 214 25
7 ?137 251 258 40 253 -0 0 137 251 56 50 256 233 0 251 223 253 0 +-.057 .004 .04
55 0 0 1 1 0 0 14 251 210 259 ?255 125 260 40 256 -0 0 255 125 56 50 223 235 0 1
43 213 256 0 +0 .004 0 0 1 0 0 0 1 81 1 259 579 215 251 261 0 250 257 262 15 260
 213 0 147 251 0 17 147 0 260 115 110 105 263 145 0 65 +17 115 0 260 144 147 85
 64 161 0 122 -17 110 0 260 147 144 108 118 164 0 159 +17 263 0 248 264 65 108 1
47 145 0 0 -17 65 0 248 263 131 105 60 66 0 0 -15 248 164 0 65 241 71 17 131 0 2
48 65 264 46 130 157 0 0 -17 264 0 248 131 263 111 159 148 0 0 -17 130 0 129 121
 67 111 131 157 0 264 +17 159 0 265 118 113 108 264 148 0 263 +15 265 217 0 159
 255 0 17 118 0 265 138 159 116 110 164 0 140 -17 113 0 265 159 138 111 121 132
 0 130 +17 138 0 265 113 118 119 140 141 0 135 -17 140 0 139 128 135 116 138 141
 0 144 +17 144 0 260 110 115 116 128 133 0 0 -15 71 4 0 72 241 0 17 72 0 71 102
 68 92 266 167 0 267 +17 102 0 71 73 72 77 98 103 0 101 +17 266 0 207 97 267 61
 72 167 0 0 -17 267 0 207 266 175 92 57 45 0 0 -15 207 89 0 175 50 0 17 175 0 20
7 267 97 81 268 163 0 0 +17 57 0 100 87 98 81 267 45 0 175 +17 87 0 100 101 57 8
4 83 176 0 184 +17 101 0 100 98 87 77 184 58 0 269 -17 83 0 245 268 270 81 87 17
6 0 57 -17 184 0 271 89 269 84 101 58 0 270 +15 271 85 0 89 231 0 17 89 0 271 27
2 184 88 270 178 0 94 +17 269 0 271 184 272 77 73 170 0 0 -17 270 0 245 83 95 84
 89 178 0 0 -15 245 49 0 268 242 0 17 95 0 245 270 268 88 91 96 0 0 -17 268 0 24
5 95 83 90 175 163 0 0 -17 272 0 271 269 89 69 94 182 0 74 -17 73 0 71 68 102 69
 269 170 0 272 +17 94 0 93 91 74 88 272 182 0 95 +17 74 0 93 94 76 69 68 75 0 0
 -15 93 83 0 91 235 0 17 76 0 93 74 91 61 97 173 0 266 -17 97 0 207 175 266 90 7
6 173 0 268 +17 64 0 62 60 122 105 115 161 0 147 +80 7 CCCCCDI12 legal_owners0 1
6 1 lCZ1 215 0 273 8001 0 0 0 0 3 5 0 0 0 FFFFTFTFFFFFFFFF2 81 1 261 566 274 251
 0 259 275 276 277 81 1 250 578 215 125 278 0 244 259 279 81 1 257 580 215 255 2
75 0 259 254 280 83 255 3 262 .792156862745098 .819607843137255 .933333333333333
 81 1 275 563 274 255 0 257 281 261 282 81 1 254 581 215 137 281 0 257 217 283 8
3 3 280 .792156862745098 .819607843137255 .933333333333333 81 1 281 560 274 137
 0 254 278 275 284 81 1 217 582 215 143 285 0 254 211 286 83 3 283 .792156862745
098 .819607843137255 .933333333333333 81 1 285 533 274 143 0 217 287 288 289 83
 3 286 .792156862745098 .819607843137255 .933333333333333 80 1 274 290 291 9000
 1 1 1 1 1 1 1 1 0 FFFFTFTFFFFFFFFF1 81 1 287 530 274 212 0 218 216 285 292 81 1
 288 536 274 214 0 224 285 228 293 82 255 1 289 -879558533 81 1 224 585 215 214
 288 0 218 294 295 81 1 228 539 274 50 0 226 288 232 296 82 1 293 -440926064 81
 1 232 542 274 227 0 229 228 297 298 82 1 296 32964752 81 1 297 545 274 231 0 23
3 232 299 300 82 1 298 2034368632 81 1 233 574 215 231 297 0 229 240 301 81 1 29
9 548 274 235 0 240 297 302 303 82 1 300 32768144 81 1 240 575 215 235 299 0 233
 247 304 81 1 302 551 274 242 0 244 299 305 306 82 1 303 2033844344 81 1 244 577
 215 242 302 0 247 250 307 81 1 305 554 274 241 0 247 302 278 308 82 1 306 20329
26840 81 1 247 576 215 241 305 0 240 244 309 81 1 278 557 274 125 0 250 305 281
 310 82 1 308 2027290747 82 1 310 34472080 83 3 309 .792156862745098 .8196078431
37255 .933333333333333 83 3 307 .792156862745098 .819607843137255 .9333333333333
33 83 3 304 .792156862745098 .819607843137255 .933333333333333 83 3 301 .7921568
62745098 .819607843137255 .933333333333333 81 1 218 584 215 212 287 0 211 224 31
1 81 1 294 586 215 222 276 0 224 0 312 83 3 295 .792156862745098 .81960784313725
5 .933333333333333 14 222 368 294 ?0 214 313 40 221 -212 212 0 214 56 81 1 276 5
69 274 222 0 294 261 0 314 83 3 312 .792156862745098 .819607843137255 .933333333
333333 82 1 314 -439811952 15 313 371 0 197 222 315 51 221 426 0 222 0 213 0 +-.
061 .024 .0195 1 0 0 .002 0 0 -1 17 197 0 313 197 197 0 316 193 0 0 +15 315 372
 0 317 222 0 17 317 0 315 317 317 0 318 151 0 0 -17 318 0 252 318 318 0 317 151
 0 0 +16 151 360 0 ?318 66 53 150 0 0 25 16 53 364 0 ?319 151 187 42 0 0 25 17 3
19 0 258 319 319 0 320 53 0 0 +15 258 306 0 319 255 189 17 320 0 321 320 320 0 3
19 53 0 0 -15 321 377 0 320 212 0 15 189 298 0 186 255 265 15 252 321 0 318 125
 322 15 322 314 0 191 125 62 17 191 0 322 191 191 0 323 187 0 0 +17 323 0 324 32
3 323 0 191 187 0 0 -15 324 402 0 323 214 0 17 316 0 236 316 316 0 197 193 0 0 -
15 236 336 0 316 231 325 15 325 328 0 326 231 271 17 326 0 325 326 326 0 202 198
 0 0 -17 202 0 225 202 202 0 326 198 0 0 +15 225 401 0 202 214 324 83 3 311 .792
156862745098 .819607843137255 .933333333333333 81 1 216 527 274 209 0 211 0 287
 327 82 1 292 -440401776 82 1 327 -441515888 79 255 14 291 SWEntUnchanged82 1 28
4 -872742789 82 1 282 34996368 83 3 279 .792156862745098 .819607843137255 .93333
3333333333 82 1 277 -873004933 79 15 273 SDL/TYSA_COLOUR83 3 234 .79215686274509
8 .819607843137255 .933333333333333 83 3 230 .792156862745098 .819607843137255 .
933333333333333 15 220 376 0 196 212 321 17 196 0 220 196 196 0 192 188 0 0 -83
 3 219 .792156862745098 .819607843137255 .933333333333333 19 51 100 0 25 0 44 40
 0 S0 74 4 CI16 index_map_offset0 0 1 dCCZ20 49 5 0 0 328 276 47 294 37 0 0 0 0
 0 0 0 0 0 0 0 0 0 0 0 81 2 328 135 329 25 0 47 0 0 330 0 81 2 47 502 331 25 328
 37 0 0 332 0 80 2 331 333 334 8004 0 0 0 0 3 5 0 0 0 FFTFFFFFFFFFFFFF2 3 83 1 3
32 1240 79 16 334 SDL/TYSA_DENSITY80 2 329 335 336 9000 0 0 0 0 3 5 0 0 0 FFTFTT
TFFTFFFFFF3 3 84 255 12 330 Cut-Extrude279 21 336 SWIMPLICITBODYNAME_ID80 1 5 33
7 338 8017 0 0 0 0 0 0 0 0 0 TTTTTTTTTTTTTFTF3 84 3 48 Box79 13 338 SDL/TYSA_NAM
E81 1 23 1234 5 13 339 0 0 0 340 70 24 0 4 T13 0 0 5 20 1 341 341 13 26 370 0 13
 0 342 0 0 343 0 51 27 1042 0 344 345 0 0 +.0245 .003 -.0696136241701869 0 1 0 .
002 0 0 1 31 28 1023 0 31 346 0 0 -.0245 .003 -.0696136241701869 0 1 0 0 0 1 .00
2 29 29 1005 0 32 347 0 .0225 0 -.0696136241701869 19 30 117 0 13 343 0 348 0 V0
 16 31 1017 0 ?349 0 350 28 0 0 13 18 32 1003 0 351 0 352 29 ?13 17 351 0 353 35
4 355 32 356 350 0 357 +18 352 1000 0 358 32 359 347 ?13 17 358 0 360 361 357 35
2 362 363 0 364 +18 359 991 0 349 352 365 366 ?13 29 347 1002 0 352 366 29 .0225
 .003 -.0696136241701869 29 366 993 0 359 367 347 .0245 .003 -.0716136241701869
 29 367 990 0 365 368 366 .0245 0 -.0716136241701869 18 365 988 0 356 359 369 36
7 ?13 29 368 935 0 369 370 367 -.0245 0 -.0716136241701869 18 369 933 0 371 365
 372 368 ?13 29 370 932 0 372 373 368 -.0245 .003 -.0716136241701869 18 372 930
 0 374 369 375 370 ?13 29 373 923 0 375 376 370 -.0225 .003 -.0696136241701869 1
8 375 921 0 377 372 378 373 ?13 29 376 920 0 378 379 373 -.0225 0 -.069613624170
1869 18 378 918 0 380 375 381 376 ?13 29 379 871 0 381 382 376 -.0225 .003 .0553
863758298131 18 381 869 0 383 378 384 379 ?13 29 382 862 0 384 385 379 -.0225 0
 .0553863758298131 18 384 860 0 386 381 387 382 ?13 29 385 851 0 387 388 382 -.0
195 .003 .0583863758298131 18 387 849 0 389 384 390 385 ?13 29 388 848 0 390 391
 385 -.0195 0 .0583863758298131 18 390 846 0 392 387 393 388 ?13 29 391 795 0 39
3 394 388 .0195 .003 .0583863758298131 18 393 793 0 395 390 396 391 ?13 29 394 7
86 0 396 397 391 .0195 0 .0583863758298131 18 396 784 0 398 393 399 394 ?13 29 3
97 777 0 399 400 394 .0225 .003 .0553863758298131 18 399 775 0 401 396 402 397 ?
13 29 400 774 0 402 403 397 .0225 0 .0553863758298131 18 402 772 0 404 399 405 4
00 ?13 29 403 725 0 405 406 400 .0295 .003 -.0716136241701869 18 405 723 0 407 4
02 408 403 ?13 29 406 716 0 408 409 403 .0295 0 -.0716136241701869 18 408 714 0
 410 405 411 406 ?13 29 409 707 0 411 412 406 .0325 .003 -.0746136241701869 18 4
11 705 0 413 408 414 409 ?13 29 412 704 0 414 415 409 .0325 0 -.0746136241701869
 18 414 702 0 416 411 417 412 ?13 29 415 655 0 417 418 412 -.0325 .003 -.0746136
241701869 18 417 653 0 419 414 420 415 ?13 29 418 646 0 420 421 415 -.0325 0 -.0
746136241701869 18 420 644 0 422 417 423 418 ?13 29 421 637 0 423 424 418 -.0295
 .003 -.0716136241701869 18 423 635 0 425 420 426 421 ?13 29 424 634 0 426 427 4
21 -.0295 0 -.0716136241701869 18 426 632 0 428 423 429 424 ?13 29 427 583 0 429
 430 424 -.0295 .003 -.141613624170187 18 429 581 0 431 426 432 427 ?13 29 430 5
74 0 432 433 427 -.0295 0 -.141613624170187 18 432 572 0 434 429 435 430 ?13 29
 433 565 0 435 436 430 -.0325 .003 -.138613624170187 18 435 563 0 437 432 438 43
3 ?13 29 436 562 0 438 439 433 -.0325 0 -.138613624170187 18 438 560 0 440 435 4
41 436 ?13 29 439 513 0 441 442 436 .0325 .003 -.138613624170187 18 441 511 0 44
3 438 444 439 ?13 29 442 504 0 444 445 439 .0325 0 -.138613624170187 18 444 502
 0 446 441 447 442 ?13 29 445 494 0 447 448 442 .0295 .003 -.141613624170187 18
 447 492 0 449 444 450 445 ?13 29 448 491 0 450 0 445 .0295 0 -.141613624170187
 18 450 489 0 451 447 0 448 ?13 17 451 0 353 446 434 450 452 453 0 454 +15 353 1
83 0 455 456 457 17 446 0 353 458 451 444 454 459 0 460 +17 434 0 353 451 461 43
2 440 462 0 452 +17 452 0 463 431 464 432 451 453 0 465 -16 453 573 0 ?451 466 4
67 468 0 0 13 17 454 0 469 470 471 450 446 459 0 464 -15 469 533 0 472 473 0 17
 470 0 469 472 454 447 464 474 0 0 -17 471 0 469 454 472 444 443 475 0 0 -16 459
 505 0 ?446 475 474 476 0 0 13 17 464 0 463 452 449 450 470 474 0 0 +15 463 307
 0 452 477 0 17 449 0 463 464 431 447 478 479 0 480 +16 474 495 0 ?464 459 481 4
82 0 0 13 16 481 86 0 ?483 474 479 484 0 0 13 30 482 497 0 474 485 476 0 +.0295
 .003 -.141613624170187 0 -1 0 31 485 272 0 466 468 482 0 -.0155 0 .020454039675
49635 0 1 0 0 0 1 .00125 31 476 507 0 459 482 486 0 -.0295 0 -.138613624170187 0
 1 0 0 0 1 .003 30 486 516 0 475 476 487 0 -.0325 .003 -.138613624170187 0 -1 0
 16 475 514 0 ?443 488 459 486 0 0 13 31 487 522 0 488 486 489 0 +.0295 .003 -.1
38613624170187 0 1 0 0 0 1 .003 16 488 520 0 ?480 490 475 487 0 0 13 30 489 568
 0 490 487 491 0 +-.0325 0 -.138613624170187 0 -1 0 16 490 566 0 ?492 462 488 48
9 0 0 13 31 491 577 0 462 489 493 0 --.0295 0 -.138613624170187 0 1 0 0 0 1 .003
 16 462 575 0 ?434 494 490 491 0 0 13 30 493 586 0 494 491 495 0 --.0295 .003 -.
141613624170187 0 -1 0 16 494 584 0 ?431 496 462 493 0 0 13 31 495 593 0 496 493
 497 0 +-.0295 .003 -.138613624170187 0 1 0 0 0 1 .003 16 496 591 0 ?437 498 494
 495 0 0 13 30 497 640 0 498 495 499 0 +-.0295 .003 -.0716136241701869 0 -1 0 16
 498 638 0 ?500 501 496 497 0 0 13 31 499 649 0 501 497 502 0 --.0295 0 -.074613
6241701869 0 1 0 0 0 1 .003 16 501 647 0 ?422 503 498 499 0 0 13 30 502 658 0 50
3 499 504 0 --.0325 .003 -.0746136241701869 0 -1 0 16 503 656 0 ?419 505 501 502
 0 0 13 31 504 664 0 505 502 506 0 +-.0295 .003 -.0746136241701869 0 1 0 0 0 1 .
003 16 505 662 0 ?425 507 503 504 0 0 13 30 506 710 0 507 504 508 0 +.0325 0 -.0
746136241701869 0 -1 0 16 507 708 0 ?509 510 505 506 0 0 13 31 508 719 0 510 506
 511 0 -.0295 0 -.0746136241701869 0 1 0 0 0 1 .003 16 510 717 0 ?512 513 507 50
8 0 0 13 30 511 728 0 513 508 514 0 -.0295 .003 -.0716136241701869 0 -1 0 16 513
 726 0 ?515 516 510 511 0 0 13 31 514 734 0 516 511 517 0 +.0295 .003 -.07461362
41701869 0 1 0 0 0 1 .003 16 516 732 0 ?413 518 513 514 0 0 13 30 517 780 0 518
 514 519 0 +.0225 0 .0553863758298131 0 -1 0 16 518 778 0 ?520 521 516 517 0 0 1
3 31 519 789 0 521 517 522 0 -.0195 0 .0553863758298131 0 1 0 0 0 1 .003 16 521
 787 0 ?398 523 518 519 0 0 13 30 522 798 0 523 519 524 0 -.0195 .003 .058386375
8298131 0 -1 0 16 523 796 0 ?395 525 521 522 0 0 13 31 524 806 0 525 522 526 0 +
.0195 .003 .0553863758298131 0 1 0 0 0 1 .003 16 525 804 0 ?401 527 523 524 0 0
 13 30 526 854 0 527 524 528 0 +-.0195 .003 .0583863758298131 0 -1 0 16 527 852
 0 ?529 530 525 526 0 0 13 31 528 865 0 530 526 531 0 --.0195 0 .055386375829813
1 0 1 0 0 0 1 .003 16 530 863 0 ?386 532 527 528 0 0 13 30 531 874 0 532 528 533
 0 --.0225 .003 .0553863758298131 0 -1 0 16 532 872 0 ?383 534 530 531 0 0 13 31
 533 880 0 534 531 535 0 +-.0195 .003 .0553863758298131 0 1 0 0 0 1 .003 16 534
 878 0 ?389 536 532 533 0 0 13 30 535 926 0 536 533 537 0 +-.0225 .003 -.0696136
241701869 0 -1 0 16 536 924 0 ?538 539 534 535 0 0 13 30 537 938 0 539 535 540 0
 --.0245 .003 -.0716136241701869 0 -1 0 16 539 936 0 ?374 541 536 537 0 0 13 31
 540 952 0 541 537 542 0 +-.0245 0 -.0696136241701869 0 1 0 0 0 1 .002 16 541 94
2 0 ?371 543 539 540 0 0 13 31 542 953 0 543 540 544 0 --.0245 .003 -.0696136241
701869 0 1 0 0 0 1 .002 16 543 947 0 ?377 545 541 542 0 0 13 30 544 996 0 545 54
2 546 0 +.0245 0 -.0716136241701869 0 -1 0 16 545 994 0 ?547 363 543 544 0 0 13
 30 546 1008 0 363 544 346 0 -.0225 .003 -.0696136241701869 0 -1 0 16 363 1006 0
 ?358 350 545 546 0 0 13 31 346 1022 0 350 546 28 0 +.0245 0 -.0696136241701869
 0 1 0 0 0 1 .002 16 350 1012 0 ?351 31 363 346 0 0 13 17 547 0 548 410 549 365
 550 545 0 355 +15 548 311 0 549 551 0 17 410 0 548 515 547 408 355 552 0 512 +1
7 549 0 548 547 515 359 407 553 0 550 -17 550 0 554 555 356 359 547 545 0 0 -17
 355 0 353 351 512 365 410 552 0 0 -17 512 0 353 355 458 408 416 510 0 556 +16 5
52 989 0 ?410 467 557 558 0 0 13 16 467 503 0 ?458 453 552 559 0 0 13 16 557 773
 0 ?357 552 560 561 0 0 13 30 558 275 0 552 561 559 0 +0 0 -.0716136241701869 1
 0 0 30 561 276 0 557 562 558 0 +.0225 0 0 0 0 -1 30 559 274 0 467 558 468 0 +.0
325 0 -3221629312528355e-33 991270557701033e-31 0 1 30 468 273 0 453 559 485 0 +
0 0 -.141613624170187 1 0 0 30 562 277 0 560 563 561 0 +0 0 .0583863758298131 -1
 0 0 16 560 785 0 ?455 557 564 562 0 0 13 30 563 278 0 564 565 562 0 +-.0225 0 0
 0 0 -1 16 564 861 0 ?566 560 567 563 0 0 13 30 565 279 0 567 568 563 0 +0 0 -.0
716136241701869 1 0 0 16 567 633 0 ?569 564 570 565 0 0 13 30 568 280 0 570 571
 565 0 +-.0325 0 3221629312528355e-33 991270557701033e-31 0 1 16 570 561 0 ?572
 567 573 568 0 0 13 31 571 281 0 573 574 568 0 +-1135007233052986e-32 0 -.121613
624170187 0 1 0 0 0 1 .002 16 573 233 0 ?575 570 576 571 0 0 13 31 574 282 0 576
 577 571 0 +-828845533266148e-32 0 -.0966136241701869 0 1 0 0 0 1 .002 16 576 23
8 0 ?578 573 579 574 0 0 13 31 577 283 0 579 580 574 0 +-.0155 0 .02045403967549
635 0 1 0 0 0 1 .00125 16 579 243 0 ?581 576 582 577 0 0 13 31 580 284 0 582 583
 577 0 +-.0155 0 .0514540396754964 0 1 0 0 0 1 .00125 16 582 248 0 ?584 579 585
 580 0 0 13 31 583 285 0 585 586 580 0 -.0155 0 .0514540396754964 0 1 0 0 0 1 .0
0125 16 585 253 0 ?587 582 588 583 0 0 13 31 586 286 0 588 484 583 0 +8673617379
88404e-32 0 .03595403967549635 0 1 0 0 0 1 .011 16 588 258 0 ?589 585 0 586 0 0
 13 31 484 88 0 481 590 586 0 -.0155 .003 .02045403967549635 0 1 0 0 0 1 .00125
 30 590 82 0 479 591 484 0 +0 .003 -.141613624170187 1 0 0 16 479 582 0 ?449 481
 592 590 0 0 13 30 591 77 0 592 593 590 0 +.0325 .003 -3221629312528355e-33 9912
70557701033e-31 0 1 16 592 512 0 ?594 479 553 591 0 0 13 30 593 72 0 553 595 591
 0 +0 .003 -.0716136241701869 1 0 0 16 553 992 0 ?407 592 596 593 0 0 13 30 595
 67 0 596 597 593 0 +.0225 .003 0 0 0 -1 16 596 776 0 ?364 553 598 595 0 0 13 30
 597 60 0 598 599 595 0 +0 .003 .0583863758298131 -1 0 0 16 598 794 0 ?600 596 6
01 597 0 0 13 30 599 55 0 601 602 597 0 +-.0225 .003 0 0 0 -1 16 601 870 0 ?603
 598 604 599 0 0 13 30 602 50 0 604 605 599 0 +0 .003 -.0716136241701869 1 0 0 1
6 604 636 0 ?606 601 607 602 0 0 13 30 605 45 0 607 608 602 0 +-.0325 .003 32216
29312528355e-33 991270557701033e-31 0 1 16 607 564 0 ?609 604 610 605 0 0 13 31
 608 40 0 610 611 605 0 +-1135007233052986e-32 .003 -.121613624170187 0 1 0 0 0
 1 .002 16 610 38 0 ?612 607 613 608 0 0 13 31 611 35 0 613 614 608 0 +-82884553
3266148e-32 .003 -.0966136241701869 0 1 0 0 0 1 .002 16 613 33 0 ?615 610 616 61
1 0 0 13 31 614 30 0 616 617 611 0 +-.0155 .003 .02045403967549635 0 1 0 0 0 1 .
00125 16 616 28 0 ?618 613 619 614 0 0 13 31 617 25 0 619 620 614 0 +-.0155 .003
 .0514540396754964 0 1 0 0 0 1 .00125 16 619 23 0 ?621 616 622 617 0 0 13 31 620
 20 0 622 623 617 0 -.0155 .003 .0514540396754964 0 1 0 0 0 1 .00125 16 622 18 0
 ?624 619 625 620 0 0 13 31 623 15 0 625 0 620 0 +867361737988404e-32 .003 .0359
5403967549635 0 1 0 0 0 1 .011 16 625 13 0 ?626 622 466 623 0 0 13 17 626 0 627
 626 626 0 628 625 0 0 +16 466 185 0 ?629 625 453 485 0 0 13 17 629 0 630 629 62
9 0 631 466 0 0 +15 630 305 0 629 632 0 17 631 0 457 631 631 0 629 466 0 0 -15 4
57 184 0 631 456 0 14 456 175 633 ?473 634 635 26 636 -0 0 473 634 348 81 1 633
 1225 215 456 637 0 638 639 640 14 473 532 639 ?641 456 469 26 642 +0 0 641 456
 348 14 634 1 638 ?456 632 643 26 644 +0 0 456 632 348 15 635 177 0 589 456 645
 50 636 271 0 456 644 646 0 +0 0 0 0 1 0 0 0 1 13 348 118 0 0 0 0 0 0 30 342 14
 342 322 647 ?648 0 649 26 650 -0 0 648 0 348 81 1 647 1209 215 342 651 0 0 652
 653 14 648 320 652 ?654 342 655 26 656 -0 0 654 342 348 15 649 321 0 572 342 0
 50 650 355 0 342 656 657 0 +-.0325 .003 3221629312528355e-33 1 0 -9912705577010
33e-31 -991270557701033e-31 0 -1 50 656 354 0 648 658 650 0 +0 .003 -.0716136241
701869 0 0 -1 -1 0 0 51 657 356 0 659 650 660 0 --1135007233052986e-32 .003 -.12
1613624170187 0 -1 0 .002 0 0 -1 14 659 324 661 ?662 477 663 26 657 +0 0 662 477
 348 51 660 357 0 662 657 664 0 --828845533266148e-32 .003 -.0966136241701869 0
 -1 0 .002 0 0 -1 14 662 328 665 ?666 659 667 26 660 +0 0 666 659 348 51 664 358
 0 666 660 668 0 --.0155 .003 .02045403967549635 0 -1 0 .00125 0 0 -1 14 666 332
 669 ?670 662 671 26 664 +0 0 670 662 348 51 668 359 0 670 664 672 0 --.0155 .00
3 .0514540396754964 0 -1 0 .00125 0 0 -1 14 670 336 673 ?674 666 675 26 668 +0 0
 674 666 348 51 672 360 0 674 668 676 0 +.0155 .003 .0514540396754964 0 -1 0 .00
125 0 0 -1 14 674 340 677 ?678 670 679 26 672 -0 0 678 670 348 51 676 361 0 678
 672 642 0 -867361737988404e-32 .003 .03595403967549635 0 -1 0 .011 0 0 -1 14 67
8 344 680 ?632 674 627 26 676 +0 0 632 674 348 51 642 544 0 473 676 681 0 +.0295
 .003 -.138613624170187 0 -1 0 .003 0 0 -1 51 681 616 0 641 642 682 0 +-.0295 .0
03 -.138613624170187 0 1 0 .003 0 0 1 14 641 604 683 ?684 473 685 26 681 +0 0 68
4 473 348 51 682 686 0 684 681 686 0 +-.0295 .003 -.0746136241701869 0 -1 0 .003
 0 0 -1 14 684 674 687 ?688 641 689 26 682 +0 0 688 641 348 51 686 756 0 688 682
 690 0 +.0295 .003 -.0746136241701869 0 1 0 .003 0 0 1 14 688 744 691 ?692 684 6
93 26 686 +0 0 692 684 348 51 690 830 0 692 686 694 0 +.0195 .003 .0553863758298
131 0 1 0 .003 0 0 1 14 692 818 695 ?696 688 697 26 690 +0 0 696 688 348 51 694
 902 0 696 690 345 0 +-.0195 .003 .0553863758298131 0 -1 0 .003 0 0 -1 14 696 89
0 698 ?699 692 700 26 694 +0 0 699 692 348 51 345 972 0 699 694 27 0 +-.0245 .00
3 -.0696136241701869 0 -1 0 .002 0 0 -1 14 699 960 701 ?344 696 702 26 345 -0 0
 344 696 348 81 1 701 1232 215 699 703 0 698 704 705 14 344 1030 704 ?0 699 554
 26 27 -0 0 0 699 348 15 702 961 0 706 699 0 17 706 0 702 707 708 372 377 543 0
 0 -17 707 0 702 380 706 369 374 539 0 0 -17 708 0 702 706 380 375 538 536 0 0 -
17 377 0 709 710 606 375 706 543 0 603 +15 709 11 0 710 634 711 17 710 0 709 389
 377 381 603 601 0 712 -17 606 0 709 377 425 372 713 604 0 706 +17 603 0 714 538
 383 375 710 601 0 708 +15 714 317 0 603 654 0 17 538 0 714 715 603 378 708 536
 0 566 +17 383 0 714 603 715 381 716 532 0 710 +17 715 0 714 383 538 384 566 564
 0 716 -17 716 0 700 392 712 384 383 532 0 0 -15 700 891 0 712 696 0 17 392 0 70
0 717 716 390 386 530 0 529 -17 712 0 700 716 717 381 389 534 0 0 -17 717 0 700
 712 392 387 529 527 0 0 -17 389 0 709 718 710 387 712 534 0 600 +17 718 0 709 4
01 389 393 600 598 0 719 -17 600 0 720 529 395 387 718 598 0 717 +15 720 315 0 6
00 721 0 17 529 0 720 722 600 390 717 527 0 455 +17 395 0 720 600 722 393 723 52
3 0 718 +17 722 0 720 395 529 396 455 560 0 723 -17 723 0 697 404 719 396 395 52
3 0 0 -15 697 819 0 719 692 0 17 404 0 697 724 723 402 398 521 0 520 -17 719 0 6
97 723 724 393 401 525 0 0 -17 724 0 697 719 404 399 520 518 0 0 -17 401 0 709 3
64 718 399 719 525 0 361 +17 364 0 709 349 401 352 361 596 0 555 +17 361 0 360 5
20 358 399 364 596 0 724 -15 360 313 0 357 725 0 17 520 0 360 357 361 402 724 51
8 0 354 +17 357 0 360 358 520 32 354 557 0 362 +17 354 0 353 398 351 402 357 557
 0 0 -17 398 0 353 455 354 396 404 521 0 722 +17 455 0 353 386 398 390 722 560 0
 0 +17 386 0 353 566 455 384 392 530 0 715 +17 566 0 353 371 386 378 715 564 0 0
 +17 371 0 353 726 566 369 380 541 0 569 +17 726 0 353 422 371 426 569 567 0 0 -
17 380 0 702 708 707 378 371 541 0 538 -17 569 0 655 374 500 369 726 567 0 707 +
15 655 319 0 569 648 0 17 374 0 655 713 569 372 707 539 0 606 +17 500 0 655 569
 713 426 727 498 0 726 +17 713 0 655 500 374 423 606 604 0 727 -17 727 0 689 728
 428 423 500 498 0 0 -15 689 675 0 728 684 0 17 728 0 689 729 727 417 425 505 0
 0 -17 428 0 689 727 729 426 422 501 0 500 -17 729 0 689 428 728 420 419 503 0 0
 -17 422 0 353 461 726 420 428 501 0 572 +17 461 0 353 434 422 438 572 570 0 0 -
17 572 0 649 419 492 420 461 570 0 729 +17 419 0 649 730 572 417 729 503 0 609 +
17 492 0 649 572 730 438 731 490 0 461 +17 730 0 649 492 419 435 609 607 0 731 -
17 731 0 685 732 440 435 492 490 0 0 -15 685 605 0 732 641 0 17 732 0 685 465 73
1 429 437 496 0 0 -17 440 0 685 731 465 438 434 462 0 492 -17 465 0 685 440 732
 432 431 494 0 0 -17 431 0 463 449 452 429 465 494 0 478 +17 478 0 709 437 480 4
29 449 479 0 732 -17 437 0 709 609 478 435 732 496 0 730 +17 480 0 709 478 733 4
47 472 488 0 470 +17 733 0 709 480 413 441 594 592 0 472 -17 472 0 469 471 470 4
41 480 488 0 0 -17 413 0 709 733 407 411 734 516 0 594 +17 594 0 735 509 443 411
 733 592 0 736 +15 735 309 0 594 737 0 17 509 0 735 460 594 414 736 507 0 458 +1
7 443 0 735 594 460 441 471 475 0 733 +17 736 0 693 734 416 411 509 507 0 0 -15
 693 745 0 734 688 0 17 734 0 693 556 736 405 413 516 0 0 -17 416 0 693 736 556
 414 512 510 0 509 -17 556 0 693 416 734 408 515 513 0 0 -17 515 0 548 549 410 4
05 556 513 0 734 +17 460 0 735 443 509 444 458 467 0 471 -17 458 0 353 512 446 4
14 460 467 0 0 +14 737 310 738 ?477 551 735 26 739 +0 0 477 551 348 81 1 738 121
5 215 737 740 0 741 742 743 14 477 308 742 ?659 737 463 26 744 +0 0 659 737 348
 14 551 312 741 ?737 725 548 26 745 -0 0 737 725 348 50 739 349 0 737 744 745 0
 +.0325 .003 -3221629312528355e-33 1 0 -991270557701033e-31 -991270557701033e-31
 0 -1 50 744 348 0 477 646 739 0 +0 .003 -.141613624170187 0 0 -1 -1 0 0 50 745
 350 0 551 739 746 0 +0 .003 -.0716136241701869 0 0 -1 -1 0 0 50 746 351 0 725 7
45 747 0 +.0225 .003 0 -1 0 0 0 0 1 14 725 314 748 ?551 721 360 26 746 -0 0 551
 721 348 50 747 352 0 721 746 658 0 +0 .003 .0583863758298131 0 0 1 1 0 0 14 721
 316 749 ?725 654 720 26 747 +0 0 725 654 348 50 658 353 0 654 747 656 0 +-.0225
 .003 0 -1 0 0 0 0 1 14 654 318 750 ?721 648 714 26 658 +0 0 721 648 348 81 1 75
0 1211 215 654 751 0 652 749 752 81 1 751 1203 274 654 0 750 753 754 755 81 1 65
2 1210 215 648 756 0 647 750 757 81 1 749 1212 215 721 753 0 750 748 758 83 3 75
2 .792156862745098 .819607843137255 .933333333333333 81 1 753 1198 274 721 0 749
 759 751 760 81 1 748 1213 215 725 759 0 749 741 761 83 3 758 .792156862745098 .
819607843137255 .933333333333333 81 1 759 1195 274 725 0 748 762 753 763 81 1 74
1 1214 215 551 762 0 748 738 764 83 3 761 .792156862745098 .819607843137255 .933
333333333333 81 1 762 1192 274 551 0 741 765 759 766 83 3 764 .792156862745098 .
819607843137255 .933333333333333 81 1 765 1188 274 477 0 742 740 762 767 82 1 76
6 701825212 81 1 742 1216 215 477 765 0 738 661 768 81 1 740 1185 274 737 0 738
 769 765 770 82 1 767 701563062 81 1 769 1182 274 344 0 704 703 740 771 82 1 770
 701694136 81 1 704 1233 215 344 769 0 701 0 772 81 1 703 1179 274 699 0 701 773
 769 774 82 1 771 782762172 81 1 773 1176 274 696 0 698 775 703 776 82 1 774 773
521595 81 1 698 1231 215 696 773 0 695 701 777 81 1 775 1173 274 692 0 695 778 7
73 779 82 1 776 764149946 81 1 695 1230 215 692 775 0 691 698 780 81 1 778 1170
 274 688 0 691 781 775 782 82 1 779 754647225 81 1 691 1229 215 688 778 0 687 69
5 783 81 1 781 1167 274 684 0 687 784 778 785 82 1 782 745406648 81 1 687 1228 2
15 684 781 0 683 691 786 81 1 784 1164 274 641 0 683 787 781 788 82 1 785 736166
071 81 1 683 1227 215 641 784 0 639 687 789 81 1 787 1161 274 678 0 680 790 784
 791 82 1 788 726794422 81 1 680 1222 215 678 787 0 677 792 793 81 1 790 1158 27
4 674 0 677 794 787 795 82 1 791 704839860 81 1 677 1221 215 674 790 0 673 680 7
96 81 1 794 1155 274 670 0 673 797 790 798 82 1 795 704446644 81 1 673 1220 215
 670 794 0 669 677 799 81 1 797 1152 274 666 0 669 800 794 801 82 1 798 70418450
0 81 1 669 1219 215 666 797 0 665 673 802 81 1 800 1149 274 662 0 665 803 797 80
4 82 1 801 703922356 81 1 665 1218 215 662 800 0 661 669 805 81 1 803 1146 274 6
59 0 661 756 800 806 82 1 804 703660212 81 1 661 1217 215 659 803 0 742 665 807
 81 1 756 1143 274 648 0 652 651 803 808 82 1 806 703398068 81 1 651 1140 274 34
2 0 647 809 756 810 82 1 808 702742715 81 1 809 1137 274 634 0 638 811 651 812 8
2 1 810 703070391 81 1 638 1224 215 634 809 0 792 633 813 81 1 811 1134 274 473
 0 639 637 809 814 82 1 812 677642428 81 1 639 1226 215 473 811 0 633 683 815 81
 1 637 1131 274 456 0 633 0 811 816 82 1 814 717488309 82 1 816 697565372 83 3 8
15 .792156862745098 .819607843137255 .933333333333333 81 1 792 1223 215 632 754
 0 680 638 817 83 3 813 .792156862745098 .819607843137255 .933333333333333 14 63
2 304 792 ?634 678 818 26 646 -0 0 634 678 348 81 1 754 1206 274 632 0 792 751 0
 819 83 3 817 .792156862745098 .819607843137255 .933333333333333 82 1 819 701169
844 15 818 303 0 820 632 630 51 646 347 0 632 636 744 0 +.0155 .003 .02045403967
549635 0 -1 0 .00125 0 0 -1 17 820 0 818 820 820 0 483 481 0 0 -17 483 0 711 483
 483 0 820 481 0 0 +15 711 12 0 483 634 0 83 3 807 .792156862745098 .81960784313
7255 .933333333333333 83 3 805 .792156862745098 .819607843137255 .93333333333333
3 83 3 802 .792156862745098 .819607843137255 .933333333333333 83 3 799 .79215686
2745098 .819607843137255 .933333333333333 83 3 796 .792156862745098 .81960784313
7255 .933333333333333 83 3 793 .792156862745098 .819607843137255 .93333333333333
3 83 3 789 .792156862745098 .819607843137255 .933333333333333 83 3 786 .79215686
2745098 .819607843137255 .933333333333333 83 3 783 .792156862745098 .81960784313
7255 .933333333333333 83 3 780 .792156862745098 .819607843137255 .93333333333333
3 83 3 777 .792156862745098 .819607843137255 .933333333333333 83 3 772 .79215686
2745098 .819607843137255 .933333333333333 83 3 768 .792156862745098 .81960784313
7255 .933333333333333 82 1 763 702152892 82 1 760 702415034 83 3 757 .7921568627
45098 .819607843137255 .933333333333333 82 1 755 702611643 83 3 743 .79215686274
5098 .819607843137255 .933333333333333 17 407 0 709 413 349 405 549 553 0 515 +1
7 349 0 709 407 364 359 555 31 0 549 +17 555 0 554 362 550 352 349 31 0 0 -15 55
4 1031 0 555 344 0 17 362 0 554 356 555 32 358 363 0 0 -17 356 0 554 550 362 365
 351 350 0 547 -17 609 0 709 425 437 417 730 607 0 728 +17 425 0 709 606 609 423
 728 505 0 713 +83 3 705 .792156862745098 .819607843137255 .933333333333333 15 6
27 343 0 626 678 821 15 821 345 0 822 678 0 17 822 0 821 822 822 0 589 588 0 0 -
17 589 0 635 589 589 0 822 588 0 0 +15 679 339 0 823 674 824 17 823 0 679 823 82
3 0 624 622 0 0 -15 824 341 0 587 674 0 17 587 0 824 587 587 0 825 585 0 0 +17 8
25 0 645 825 825 0 587 585 0 0 -15 645 178 0 825 456 826 15 826 179 0 584 456 82
7 17 584 0 826 584 584 0 828 582 0 0 +15 827 180 0 581 456 829 17 581 0 827 581
 581 0 830 579 0 0 +15 829 181 0 578 456 831 17 578 0 829 578 578 0 832 576 0 0
 +15 831 182 0 575 456 353 17 575 0 831 575 575 0 833 573 0 0 +17 833 0 834 833
 833 0 575 573 0 0 -15 834 325 0 833 659 0 17 832 0 835 832 832 0 578 576 0 0 -1
5 835 329 0 832 662 0 17 830 0 836 830 830 0 581 579 0 0 -15 836 333 0 830 666 0
 17 828 0 837 828 828 0 584 582 0 0 -15 837 337 0 828 670 0 17 624 0 838 624 624
 0 823 622 0 0 +15 838 6 0 624 634 839 15 839 7 0 840 634 841 17 840 0 839 840 8
40 0 621 619 0 0 -15 841 8 0 842 634 843 17 842 0 841 842 842 0 618 616 0 0 -15
 843 9 0 844 634 845 17 844 0 843 844 844 0 615 613 0 0 -15 845 10 0 846 634 709
 17 846 0 845 846 846 0 612 610 0 0 -17 612 0 663 612 612 0 846 610 0 0 +15 663
 323 0 612 659 834 17 615 0 667 615 615 0 844 613 0 0 +15 667 327 0 615 662 835
 17 618 0 671 618 618 0 842 616 0 0 +15 671 331 0 618 666 836 17 621 0 675 621 6
21 0 840 619 0 0 +15 675 335 0 621 670 837 83 3 653 .792156862745098 .8196078431
37255 .933333333333333 50 644 3 0 634 0 636 0 +0 .003 0 0 1 0 0 0 1 15 643 5 0 6
28 634 838 17 628 0 643 628 628 0 626 625 0 0 -83 3 640 .792156862745098 .819607
843137255 .933333333333333 19 343 371 0 13 0 30 26 0 S0 74 20 341 5 0 0 847 754
 339 704 23 0 0 0 0 0 0 0 0 0 0 0 0 0 0 0 81 2 847 469 329 13 0 339 0 0 848 0 81
 2 339 1096 331 13 847 23 0 0 849 0 83 1 849 1240 84 7 848 Fillet984 12 340 leg_
oldtwsbr81 1 11 1416 5 7 850 0 0 0 851 70 12 0 4 T7 0 0 5 20 1 852 852 13 14 99
 0 7 0 853 0 0 854 0 51 15 430 0 855 856 0 0 +.00300000000000004 .033 -.035 0 -1
 0 .003 0 0 -1 30 16 336 0 19 857 0 0 -330654635769786e-32 .033 -.003 0 -1 0 29
 17 291 0 20 858 0 .035 .033 0 19 18 33 0 7 854 0 859 0 V0 16 19 334 0 ?860 0 86
1 16 0 0 7 18 20 289 0 862 0 863 17 ?7 17 862 0 864 865 866 20 867 868 0 869 +18
 863 286 0 870 20 871 858 ?7 17 870 0 872 869 873 863 874 875 0 865 +18 871 283
 0 860 863 876 877 ?7 29 858 288 0 863 877 17 .003 .033 0 29 877 285 0 871 878 8
58 330654635769786e-32 .033 -.003 29 878 282 0 876 879 877 3857637417314165e-32
 .033 -.035 18 876 280 0 880 871 881 878 ?7 29 879 267 0 881 882 878 .038 .033 -
.035 18 881 265 0 883 876 884 879 ?7 29 882 264 0 884 885 879 .038 .033 -.003 18
 884 262 0 886 881 887 882 ?7 29 885 237 0 887 888 882 330654635769786e-32 0 -.0
03 18 887 235 0 889 884 890 885 ?7 29 888 234 0 890 891 885 3857637417314165e-32
 0 -.035 18 890 232 0 892 887 893 888 ?7 29 891 231 0 893 894 888 .035 0 0 18 89
3 229 0 895 890 896 891 ?7 29 894 228 0 896 897 891 .003 0 0 18 896 226 0 898 89
3 899 894 ?7 29 897 225 0 899 900 894 .038 0 -.035 18 899 223 0 901 896 902 897
 ?7 29 900 222 0 902 903 897 .038 0 -.003 18 902 220 0 904 899 905 900 ?7 29 903
 207 0 905 906 900 .00300000000000004 .033 -.038 18 905 205 0 907 902 908 903 ?7
 29 906 204 0 908 909 903 .035 .033 -.038 18 908 202 0 910 905 911 906 ?7 29 909
 201 0 911 912 906 .00300000000000004 0 -.038 18 911 199 0 913 908 914 909 ?7 29
 912 198 0 914 0 909 .035 0 -.038 18 914 196 0 915 911 0 912 ?7 17 915 0 916 917
 918 914 901 919 0 920 -15 916 356 0 921 922 0 17 917 0 916 921 915 908 920 923
 0 0 -17 918 0 916 915 921 899 883 924 0 0 -17 901 0 925 926 927 899 915 919 0 9
28 +16 919 256 0 ?901 929 930 931 0 0 7 17 920 0 932 933 934 914 917 923 0 927 +
15 932 89 0 934 935 0 17 933 0 932 907 920 911 927 936 0 937 +17 934 0 932 920 9
07 908 938 939 0 917 -16 923 214 0 ?920 940 941 942 0 0 7 17 927 0 925 901 913 9
14 933 936 0 0 -15 925 49 0 927 943 0 17 913 0 925 927 944 911 892 940 0 933 +16
 936 197 0 ?933 945 946 947 0 0 7 16 945 233 0 ?948 949 936 950 0 0 7 16 946 159
 0 ?951 936 952 953 0 0 7 30 947 74 0 936 954 950 0 +.038 0 -.038 -1 0 0 30 954
 19 0 955 956 947 0 +.038 .033 0 547807413466361e-30 0 -1 30 950 73 0 945 947 95
7 0 +418829205308395e-31 0 -.038 -110218211923262e-29 0 1 30 957 72 0 949 950 95
8 0 +0 0 0 1 0 0 16 949 227 0 ?866 959 945 957 0 0 7 30 958 71 0 959 957 960 0 +
.038 0 0 547807413466361e-30 0 -1 16 959 221 0 ?928 939 949 958 0 0 7 30 960 210
 0 941 958 942 0 -.00300000000000004 .033 -.038 0 -1 0 16 941 208 0 ?907 923 955
 960 0 0 7 30 942 216 0 923 960 961 0 +.035 .033 -.038 0 -1 0 31 961 240 0 940 9
42 962 0 -.00300000000000004 0 -.035 0 1 0 0 0 1 .003 16 940 238 0 ?913 963 923
 961 0 0 7 31 962 246 0 963 961 964 0 -.003 0 -.003 0 1 0 0 0 1 .003 16 963 244
 0 ?889 930 940 962 0 0 7 31 964 252 0 930 962 931 0 -.035 0 -.003 0 1 0 0 0 1 .
003 16 930 250 0 ?895 919 963 964 0 0 7 31 931 258 0 919 964 965 0 -.035 0 -.035
 0 1 0 0 0 1 .003 30 965 270 0 929 931 966 0 +.038 .033 -.003 0 -1 0 16 929 268
 0 ?967 924 919 965 0 0 7 30 966 276 0 924 965 968 0 -.038 .033 -.035 0 -1 0 16
 924 274 0 ?883 969 929 966 0 0 7 31 968 294 0 969 966 970 0 +.00300000000000004
 .033 -.035 0 1 0 0 0 1 .003 16 969 292 0 ?880 875 924 968 0 0 7 31 970 300 0 87
5 968 971 0 +.003 .033 -.003 0 1 0 0 0 1 .003 16 875 298 0 ?870 972 969 970 0 0
 7 31 971 306 0 972 970 973 0 +.035 .033 -.003 0 1 0 0 0 1 .003 16 972 304 0 ?88
6 974 875 971 0 0 7 31 973 312 0 974 971 975 0 +.035 .033 -.035 0 1 0 0 0 1 .003
 16 974 310 0 ?910 976 972 973 0 0 7 30 975 318 0 976 973 977 0 +.003 .033 0 0 -
1 0 16 976 316 0 ?978 868 974 975 0 0 7 30 977 324 0 868 975 857 0 -.035 .033 0
 0 -1 0 16 868 322 0 ?862 861 976 977 0 0 7 30 857 330 0 861 977 16 0 +385763741
7314165e-32 .033 -.035 0 -1 0 16 861 328 0 ?979 19 868 857 0 0 7 17 979 0 980 94
8 981 890 982 861 0 944 +15 980 87 0 948 983 0 17 948 0 980 860 979 887 944 945
 0 984 +17 981 0 980 979 860 876 873 985 0 982 -17 982 0 986 987 892 876 979 861
 0 0 -17 944 0 925 913 889 890 948 945 0 0 -17 889 0 925 944 988 887 898 963 0 9
48 +17 988 0 925 889 895 896 866 949 0 0 -17 898 0 989 990 984 896 889 963 0 978
 -15 989 398 0 874 991 0 17 990 0 989 874 898 863 978 976 0 0 -17 984 0 989 898
 874 887 860 19 0 0 -17 978 0 864 866 865 896 990 976 0 988 +15 864 85 0 866 992
 0 17 866 0 864 862 978 893 988 949 0 867 +17 865 0 864 978 862 863 869 993 0 99
0 -17 869 0 872 886 870 20 865 993 0 994 +16 993 287 0 ?869 955 985 956 0 0 7 16
 955 263 0 ?995 941 993 954 0 0 7 16 985 281 0 ?873 993 939 996 0 0 7 30 956 15
 0 993 996 954 0 +0 .033 0 1 0 0 30 996 11 0 985 997 956 0 +418829205308395e-31
 .033 -.038 -110218211923262e-29 0 1 30 997 7 0 939 998 996 0 +.038 .033 -.038 -
1 0 0 16 939 203 0 ?938 985 959 997 0 0 7 31 998 178 0 952 953 997 0 +.019 .033
 -.01939884777548585 0 1 0 0 0 1 .0022 16 952 156 0 ?999 946 1000 998 0 0 7 31 9
53 179 0 946 1001 998 0 +.019 .066 -.01939884777548585 0 1 0 0 0 1 .0022 31 1001
 621 0 1002 1003 953 0 +.0035 .033 -.0345 0 1 0 0 0 1 .00125 16 1002 587 0 ?1004
 1000 1005 1001 0 0 7 31 1003 622 0 1000 1006 1001 0 +.0035 .026 -.0345 0 1 0 0
 0 1 .00125 16 1000 584 0 ?1007 952 1002 1003 0 0 7 31 1006 623 0 1008 1009 1003
 0 +.0035 .026 -.0035 0 -1 0 0 0 -1 .00125 16 1008 551 0 ?1010 1011 1012 1006 0
 0 7 31 1009 624 0 1011 1013 1006 0 +.0035 .033 -.0035 0 -1 0 0 0 -1 .00125 16 1
011 548 0 ?1014 1015 1008 1009 0 0 7 31 1013 625 0 1015 1016 1009 0 +.0345 .026
 -.0345 0 -1 0 0 0 -1 .00125 16 1015 533 0 ?1017 1005 1011 1013 0 0 7 31 1016 62
6 0 1005 1018 1013 0 +.0345 .033 -.0345 0 -1 0 0 0 -1 .00125 16 1005 530 0 ?1019
 1002 1015 1016 0 0 7 31 1018 627 0 1020 1021 1016 0 +.0345 .026 -.0034999999999
9996 0 1 0 0 0 1 .00125 16 1020 566 0 ?1022 1012 0 1018 0 0 7 31 1021 628 0 1012
 0 1018 0 +.0345 .033 -.00349999999999996 0 1 0 0 0 1 .00125 16 1012 569 0 ?1023
 1008 1020 1021 0 0 7 17 1023 0 1024 1023 1023 0 1025 1012 0 0 +15 1024 576 0 10
23 1026 0 17 1025 0 1027 1025 1025 0 1023 1012 0 0 -15 1027 507 0 1025 853 1028
 14 853 525 1029 ?935 0 1030 14 1031 +0 0 935 0 859 15 1028 499 0 1032 853 1033
 17 1032 0 1028 1032 1032 0 1004 1002 0 0 -15 1033 149 0 1034 853 872 17 1034 0
 1033 1034 1034 0 999 952 0 0 -15 872 4 0 995 853 1035 17 995 0 872 910 886 881
 1036 955 0 921 +15 1035 522 0 1019 853 0 17 1019 0 1035 1019 1019 0 1037 1005 0
 0 +17 1037 0 1038 1037 1037 0 1019 1005 0 0 -15 1038 540 0 1037 1039 0 14 1039
 536 1040 ?1041 1042 1043 14 1044 +0 0 1041 1042 859 81 1 1040 1414 215 1039 104
5 0 1046 1047 1048 14 1041 541 1047 ?0 1039 1049 14 1050 -0 0 0 1039 859 14 1042
 559 1046 ?1039 1051 1052 14 1053 -0 0 1039 1051 859 15 1043 539 0 1017 1039 103
8 51 1044 617 0 1039 1054 1050 0 -.0345 .026 -.0345 0 1 0 .00125 0 0 1 13 859 34
 0 0 0 0 0 0 18 853 50 1054 618 0 1055 1056 1044 0 +.0345 .026 -.003499999999999
96 0 1 0 0 0 1 50 1050 615 0 1041 1044 1057 0 +.0345 .026 -.0345 0 -1 0 0 0 -1 5
1 1057 614 0 1051 1050 1053 0 -.0035 .026 -.0035 0 1 0 .00125 0 0 1 14 1051 554
 1058 ?1042 1055 1059 14 1057 +0 0 1042 1055 859 50 1053 612 0 1042 1057 1060 0
 +.0035 .026 -.0035 0 -1 0 0 0 -1 50 1060 611 0 1061 1053 1062 0 +.0035 .026 -.0
345 0 1 0 0 0 1 14 1061 595 1063 ?1026 1064 1065 14 1060 +0 0 1026 1064 859 51 1
062 609 0 1064 1060 1066 0 +.0035 .026 -.0345 0 1 0 .00125 0 0 1 14 1064 590 106
7 ?1061 855 1068 14 1062 -0 0 1061 855 859 50 1066 177 0 1069 1062 1070 0 +.019
 .066 -.01939884777548585 0 1 0 0 0 1 14 1069 167 1071 ?922 1072 1073 14 1066 +0
 0 922 1072 859 51 1070 175 0 1072 1066 1031 0 -.019 .066 -.01939884777548585 0
 -1 0 .0022 0 0 -1 14 1072 162 1074 ?1069 943 1075 14 1070 -0 0 1069 943 859 50
 1031 3 0 853 1070 1076 0 +0 .033 0 0 1 0 0 0 1 50 1076 70 0 943 1031 1077 0 +0
 0 0 0 1 0 0 0 1 14 943 48 1078 ?1072 1079 925 14 1076 -0 0 1072 1079 859 50 107
7 91 0 1079 1076 1080 0 +.038 .033 0 -1 0 -547807413466361e-30 -547807413466361e
-30 0 1 14 1079 84 1081 ?943 992 1082 14 1077 -0 0 943 992 859 50 1080 92 0 992
 1077 1083 0 +0 .033 0 0 0 -1 -1 0 0 14 992 86 1084 ?1079 983 864 14 1080 -0 0 1
079 983 859 50 1083 93 0 983 1080 1085 0 +418829205308395e-31 .033 -.038 1 0 110
218211923262e-29 110218211923262e-29 0 -1 14 983 88 1086 ?992 935 980 14 1083 -0
 0 992 935 859 50 1085 94 0 935 1083 1087 0 +.038 .033 -.038 0 0 1 1 0 0 14 935
 90 1088 ?983 853 932 14 1085 -0 0 983 853 859 51 1087 367 0 922 1085 1089 0 +.0
35 .033 -.035 0 -1 0 .003 0 0 -1 14 922 355 1090 ?1091 1069 916 14 1087 +0 0 109
1 1069 859 51 1089 388 0 1091 1087 856 0 +.035 .033 -.003 0 -1 0 .003 0 0 -1 14
 1091 376 1092 ?991 922 1093 14 1089 +0 0 991 922 859 51 856 409 0 991 1089 15 0
 +.003 .033 -.003 0 -1 0 .003 0 0 -1 14 991 397 1094 ?855 1091 989 14 856 +0 0 8
55 1091 859 81 1 1094 1406 215 991 1095 0 1092 1096 1097 14 855 418 1096 ?1064 9
91 986 14 15 +0 0 1064 991 859 81 1 1096 1407 215 855 1098 0 1094 1067 1099 15 9
86 419 0 987 855 0 17 987 0 986 937 982 905 880 969 0 0 -17 937 0 986 892 987 91
1 907 941 0 0 -17 880 0 872 873 938 876 987 969 0 981 +17 873 0 872 870 880 871
 981 985 0 874 +17 938 0 872 880 910 905 934 939 0 987 +17 910 0 872 938 995 908
 921 974 0 934 +17 921 0 916 918 917 881 910 974 0 0 -17 874 0 989 984 990 871 8
70 875 0 0 -17 892 0 986 982 937 890 913 940 0 979 -17 907 0 932 934 933 905 937
 941 0 938 +81 1 1098 1387 274 855 0 1096 1095 1100 1101 81 1 1067 1408 215 1064
 1102 0 1096 1063 1103 83 3 1099 .792156862745098 .819607843137255 .933333333333
333 81 1 1102 1354 274 1064 0 1067 1104 1105 1106 81 1 1063 1409 215 1061 1104 0
 1067 1107 1108 83 3 1103 .792156862745098 .819607843137255 .933333333333333 81
 1 1104 1351 274 1061 0 1063 1109 1102 1110 81 1 1107 1410 215 1026 1100 0 1063
 1111 1112 83 3 1108 .792156862745098 .819607843137255 .933333333333333 14 1026
 572 1107 ?1055 1061 1113 14 1056 -0 0 1055 1061 859 81 1 1100 1390 274 1026 0 1
107 1098 1114 1115 81 1 1111 1411 215 1055 1114 0 1107 1058 1116 83 3 1112 .7921
56862745098 .819607843137255 .933333333333333 14 1055 577 1111 ?1051 1026 1117 1
4 1054 +0 0 1051 1026 859 81 1 1114 1393 274 1055 0 1111 1100 0 1118 81 1 1058 1
412 215 1051 1109 0 1111 1046 1119 83 3 1116 .792156862745098 .819607843137255 .
933333333333333 81 1 1109 1348 274 1051 0 1058 1120 1104 1121 81 1 1046 1413 215
 1042 1120 0 1058 1040 1122 83 3 1119 .792156862745098 .819607843137255 .9333333
33333333 81 1 1120 1345 274 1042 0 1046 1123 1109 1124 83 3 1122 .79215686274509
8 .819607843137255 .933333333333333 81 1 1123 1342 274 1041 0 1047 1045 1120 112
5 82 1 1124 567804043 81 1 1047 1415 215 1041 1123 0 1040 0 1126 81 1 1045 1339
 274 1039 0 1040 1127 1123 1128 82 1 1125 563740811 81 1 1127 1336 274 853 0 102
9 0 1045 1129 82 1 1128 565706891 81 1 1029 1396 215 853 1127 0 0 1088 1130 82 1
 1129 583401611 81 1 1088 1397 215 935 1131 0 1029 1086 1132 83 3 1130 .79215686
2745098 .819607843137255 .933333333333333 81 1 1131 1375 274 935 0 1088 1133 113
4 1135 81 1 1086 1398 215 983 1133 0 1088 1084 1136 83 3 1132 .792156862745098 .
819607843137255 .933333333333333 81 1 1133 1372 274 983 0 1086 1137 1131 1138 81
 1 1084 1399 215 992 1137 0 1086 1081 1139 83 3 1136 .792156862745098 .819607843
137255 .933333333333333 81 1 1137 1369 274 992 0 1084 1140 1133 1141 81 1 1081 1
400 215 1079 1140 0 1084 1078 1142 83 3 1139 .792156862745098 .819607843137255 .
933333333333333 81 1 1140 1366 274 1079 0 1081 1143 1137 1144 81 1 1078 1401 215
 943 1143 0 1081 1074 1145 83 3 1142 .792156862745098 .819607843137255 .93333333
3333333 81 1 1143 1363 274 943 0 1078 1146 1140 1147 81 1 1074 1402 215 1072 114
6 0 1078 1071 1148 83 3 1145 .792156862745098 .819607843137255 .933333333333333
 81 1 1146 1360 274 1072 0 1074 1105 1143 1149 81 1 1071 1403 215 1069 1105 0 10
74 1090 1150 83 3 1148 .792156862745098 .819607843137255 .933333333333333 81 1 1
105 1357 274 1069 0 1071 1102 1146 1151 81 1 1090 1404 215 922 1134 0 1071 1092
 1152 83 3 1150 .792156862745098 .819607843137255 .933333333333333 81 1 1134 137
8 274 922 0 1090 1131 1153 1154 81 1 1092 1405 215 1091 1153 0 1090 1094 1155 83
 3 1152 .792156862745098 .819607843137255 .933333333333333 81 1 1153 1381 274 10
91 0 1092 1134 1095 1156 83 3 1155 .792156862745098 .819607843137255 .9333333333
33333 81 1 1095 1384 274 991 0 1094 1153 1098 1157 82 1 1156 1108213886 82 1 115
7 1110179966 82 1 1154 1106247806 82 1 1151 1095565437 82 1 1149 1097531517 82 1
 1147 352125054 82 1 1144 351993982 82 1 1141 351862910 82 1 1138 351535230 82 1
 1135 351404158 83 3 1126 .792156862745098 .819607843137255 .933333333333333 82
 1 1121 569770123 82 1 1118 571867275 15 1117 579 0 1022 1055 0 17 1022 0 1117 1
022 1022 0 1158 1020 0 0 +17 1158 0 1113 1158 1158 0 1022 1020 0 0 -15 1113 575
 0 1158 1026 1024 82 1 1115 573833355 51 1056 620 0 1026 0 1054 0 +.0345 .026 -.
00349999999999996 0 1 0 .00125 0 0 1 82 1 1110 559743115 82 1 1106 561709195 82
 1 1101 1112146046 83 3 1097 .792156862745098 .819607843137255 .933333333333333
 15 1093 377 0 994 1091 0 17 994 0 1093 867 1159 20 886 972 0 0 -17 867 0 1093 9
04 994 893 862 868 0 0 -17 1159 0 1093 994 904 884 967 929 0 0 -17 886 0 872 995
 869 884 994 972 0 1036 +17 1036 0 1082 967 883 884 995 955 0 1159 -15 1082 83 0
 928 1079 0 17 967 0 1082 928 1036 902 1159 929 0 926 +17 883 0 1082 1036 928 88
1 918 924 0 995 +17 928 0 1082 883 967 899 926 959 0 918 +17 926 0 925 895 901 9
02 928 959 0 0 -17 895 0 925 988 926 893 904 930 0 866 +17 904 0 1093 1159 867 9
02 895 930 0 967 -15 1075 165 0 1160 1072 1161 17 1160 0 1075 1160 1160 0 951 94
6 0 0 -15 1161 166 0 999 1072 0 17 999 0 1161 999 999 0 1034 952 0 0 +17 951 0 1
073 951 951 0 1160 946 0 0 +15 1073 169 0 951 1069 0 15 1068 593 0 1162 1064 116
3 17 1162 0 1068 1162 1162 0 1007 1000 0 0 -15 1163 594 0 1004 1064 0 17 1004 0
 1163 1004 1004 0 1032 1002 0 0 +17 1007 0 1065 1007 1007 0 1162 1000 0 0 +15 10
65 597 0 1007 1061 0 15 1059 557 0 1010 1051 1164 17 1010 0 1059 1010 1010 0 116
5 1008 0 0 +15 1164 558 0 1166 1051 0 17 1166 0 1164 1166 1166 0 1014 1011 0 0 -
17 1014 0 1030 1014 1014 0 1166 1011 0 0 +15 1030 514 0 1014 853 1027 17 1165 0
 1052 1165 1165 0 1010 1008 0 0 -15 1052 561 0 1165 1042 0 17 1017 0 1043 1017 1
017 0 1167 1015 0 0 +17 1167 0 1049 1167 1167 0 1017 1015 0 0 -15 1049 543 0 116
7 1041 0 83 3 1048 .792156862745098 .819607843137255 .933333333333333 17 860 0 9
80 981 948 871 984 19 0 873 +19 854 100 0 7 0 18 14 0 S0 74 20 852 5 0 0 1114 11
68 850 1047 11 0 0 0 0 0 0 0 0 0 0 0 0 0 0 0 81 2 1168 187 329 7 0 850 0 0 1169
 0 81 2 850 689 331 7 1168 11 0 0 1170 0 83 1 1170 5339 84 12 1169 Cut-Extrude18
4 13 851 stepper_motor74 20 6 1 0 0 2 0 0 0 0 0 0 0 0 0 0 0 0 0 0 0 0 0 0 0 1 0
 
